<svg width="14" height="13" viewBox="0 0 14 13" fill="none" xmlns="http://www.w3.org/2000/svg">
<path d="M11.7285 2.12109C12.2972 2.12118 12.7578 2.58265 12.7578 3.15137V9.33008C12.7578 9.89877 12.2972 10.3603 11.7285 10.3604H2.45996C1.8912 10.3604 1.42971 9.89883 1.42969 9.33008V3.15137C1.42969 2.5826 1.89119 2.12109 2.45996 2.12109H11.7285ZM7.36621 3.90723C7.23413 3.7758 7.03053 3.75937 6.88086 3.8584L6.82031 3.90723L5.27539 5.45215C5.12503 5.60276 5.12533 5.84725 5.27539 5.99805C5.40739 6.13004 5.61181 6.1469 5.76172 6.04785L5.82227 5.99805L6.70703 5.11328V7.78516C6.70704 7.9983 6.88066 8.17067 7.09375 8.1709C7.30697 8.17082 7.47948 7.99839 7.47949 7.78516V5.1123L8.36523 5.99805C8.516 6.14881 8.7603 6.14871 8.91113 5.99805C9.06188 5.84722 9.06193 5.60294 8.91113 5.45215L7.36621 3.90723Z" fill="#69D569"/>
</svg>
