<svg width="13" height="13" viewBox="0 0 13 13" fill="none" xmlns="http://www.w3.org/2000/svg">
<path d="M0.988281 4.18024C0.988281 3.61147 1.44936 3.15039 2.01813 3.15039H7.16738C8.30493 3.15039 9.22709 4.07255 9.22709 5.21009V8.81457C9.22709 9.38334 8.76601 9.84442 8.19724 9.84442H3.04798C1.91044 9.84442 0.988281 8.92226 0.988281 7.78472V4.18024Z" fill="#ACACAC"/>
<path d="M9.74219 4.98671C9.74219 4.80584 9.83709 4.63823 9.99219 4.54517L11.537 3.6183C11.8802 3.41238 12.3168 3.6596 12.3168 4.05985V8.93496C12.3168 9.33521 11.8802 9.58244 11.537 9.37651L9.99219 8.44964C9.83709 8.35658 9.74219 8.18897 9.74219 8.0081V4.98671Z" fill="#ACACAC"/>
</svg>
