<svg xmlns="http://www.w3.org/2000/svg" width="18" height="19" viewBox="0 0 18 19" fill="none">
<g clip-path="url(#clip0_4424_452942)">
<path d="M15.6507 10.3866C15.712 10.0266 15.7441 9.66212 15.7467 9.29688C15.7441 8.93163 15.712 8.56719 15.6507 8.20712L17.2257 6.68537C17.3458 6.56916 17.4236 6.41617 17.4468 6.25067C17.4701 6.08518 17.4374 5.91666 17.3539 5.77188L16.2289 3.82187C16.1443 3.67762 16.0143 3.56546 15.8592 3.50291C15.7041 3.44035 15.5327 3.43094 15.3717 3.47612L13.2717 4.07613C12.7031 3.61302 12.063 3.24547 11.3764 2.98787L10.8492 0.865375C10.8087 0.703051 10.7151 0.558923 10.5833 0.455912C10.4515 0.352901 10.289 0.296921 10.1217 0.296875H7.87168C7.70438 0.296921 7.5419 0.352901 7.41008 0.455912C7.27826 0.558923 7.18466 0.703051 7.14418 0.865375L6.61393 2.98787C5.92841 3.24576 5.28934 3.6133 4.72168 4.07613L2.62168 3.47612C2.46066 3.43107 2.28926 3.44055 2.1342 3.50309C1.97914 3.56563 1.84913 3.67772 1.76443 3.82187L0.639427 5.77188C0.555785 5.91674 0.522975 6.08541 0.546214 6.25107C0.569452 6.41673 0.647404 6.56986 0.767677 6.68612L2.34268 8.20788C2.28139 8.5677 2.24929 8.93188 2.24668 9.29688C2.24925 9.66212 2.28135 10.0266 2.34268 10.3866L0.767677 11.9084C0.64758 12.0246 0.569738 12.1776 0.546503 12.3431C0.523269 12.5086 0.555973 12.6771 0.639427 12.8219L1.76443 14.7719C1.83031 14.886 1.92511 14.9807 2.03926 15.0466C2.15342 15.1124 2.2829 15.147 2.41468 15.1469C2.48439 15.1466 2.55374 15.137 2.62093 15.1184L4.72093 14.5184C5.2895 14.9815 5.9296 15.349 6.61618 15.6066L7.14643 17.7291C7.18696 17.8909 7.28028 18.0346 7.41163 18.1374C7.54298 18.2403 7.70487 18.2964 7.87168 18.2969H10.1217C10.289 18.2968 10.4515 18.2408 10.5833 18.1378C10.7151 18.0348 10.8087 17.8907 10.8492 17.7284L11.3794 15.6059C12.0649 15.348 12.704 14.9804 13.2717 14.5176L15.3717 15.1176C15.4389 15.1362 15.5082 15.1458 15.5779 15.1461C15.7097 15.1463 15.8392 15.1117 15.9533 15.0458C16.0675 14.98 16.1623 14.8852 16.2282 14.7711L17.3532 12.8211C17.4368 12.6763 17.4696 12.5076 17.4464 12.3419C17.4232 12.1763 17.3452 12.0231 17.2249 11.9069L15.6507 10.3866ZM8.99668 12.2969C8.40333 12.2969 7.82331 12.1209 7.32997 11.7913C6.83662 11.4616 6.4521 10.9931 6.22504 10.4449C5.99798 9.89675 5.93857 9.29355 6.05432 8.7116C6.17008 8.12966 6.4558 7.59511 6.87536 7.17555C7.29491 6.756 7.82946 6.47027 8.41141 6.35452C8.99335 6.23876 9.59655 6.29817 10.1447 6.52524C10.6929 6.7523 11.1614 7.13682 11.4911 7.63016C11.8207 8.12351 11.9967 8.70353 11.9967 9.29688C11.9967 10.0925 11.6806 10.8556 11.118 11.4182C10.5554 11.9808 9.79233 12.2969 8.99668 12.2969Z" fill="#2E3038"/>
</g>
<defs>
<clipPath id="clip0_4424_452942">
<rect width="18" height="18" fill="white" transform="translate(0 0.296875)"/>
</clipPath>
</defs>
</svg>