<svg width="52" height="52" viewBox="0 0 52 52" fill="none" xmlns="http://www.w3.org/2000/svg">
<path d="M2.91895 31.7852C5.51033 42.305 15.0065 50.1074 26.3262 50.1074C37.6458 50.1074 47.142 42.305 49.7334 31.7852H50.6523C48.0419 42.8027 38.1418 51 26.3262 51L25.6807 50.9922C14.1513 50.7 4.56382 42.6015 2.00098 31.7852H2.91895ZM8.88086 31.8037C11.3116 39.1076 18.2009 44.3748 26.3213 44.375C34.4418 44.375 41.331 39.1077 43.7617 31.8037H48.8027C46.2245 41.8146 37.1371 49.2119 26.3213 49.2119L25.7227 49.2041C15.1717 48.9369 6.37132 41.6291 3.84082 31.8037H8.88086ZM26.7461 31.7236C27.058 31.7237 27.3264 31.8018 27.5508 31.959C27.7751 32.1162 27.9472 32.3444 28.0664 32.6436C28.1869 32.9429 28.2471 33.3049 28.2471 33.7285C28.247 34.1545 28.1869 34.5185 28.0664 34.8203C27.9472 35.1208 27.7751 35.3503 27.5508 35.5088C27.3276 35.6673 27.0592 35.747 26.7461 35.7471C26.4329 35.7471 26.1639 35.6673 25.9395 35.5088C25.7163 35.349 25.5443 35.1189 25.4238 34.8184C25.3046 34.5166 25.2451 34.1533 25.2451 33.7285C25.2464 33.3036 25.3066 32.9416 25.4258 32.6436C25.5463 32.3444 25.7183 32.1162 25.9414 31.959C26.1658 31.8018 26.4342 31.7236 26.7461 31.7236ZM30.2119 31.7236C30.5239 31.7237 30.7921 31.8017 31.0166 31.959C31.241 32.1162 31.413 32.3444 31.5322 32.6436C31.6527 32.9429 31.7129 33.3049 31.7129 33.7285C31.7129 34.1545 31.6527 34.5185 31.5322 34.8203C31.413 35.1208 31.241 35.3503 31.0166 35.5088C30.7934 35.6673 30.5251 35.7471 30.2119 35.7471C29.8987 35.7471 29.6298 35.6673 29.4053 35.5088C29.1821 35.349 29.0101 35.1189 28.8896 34.8184C28.7705 34.5166 28.711 34.1533 28.7109 33.7285C28.7122 33.3036 28.7724 32.9416 28.8916 32.6436C29.0121 32.3444 29.1841 32.1162 29.4072 31.959C29.6317 31.8018 29.9 31.7236 30.2119 31.7236ZM20.4297 31.7236C20.6908 31.7236 20.9204 31.7716 21.1182 31.8691C21.316 31.9668 21.47 32.1015 21.5791 32.2715C21.6892 32.4413 21.7441 32.6356 21.7441 32.8535C21.7441 32.9992 21.7159 33.1425 21.6602 33.2832C21.6043 33.4239 21.5059 33.5798 21.3652 33.751C21.2257 33.9222 21.0297 34.1296 20.7773 34.373L20.1064 35.0557V35.083H21.8027V35.6729H19.1318V35.1631L20.4844 33.8369C20.6137 33.7063 20.7224 33.5897 20.8086 33.4883C20.8947 33.3869 20.9589 33.2884 21.002 33.1934C21.045 33.0984 21.0673 32.9973 21.0674 32.8896C21.0674 32.7666 21.0392 32.6608 20.9834 32.5732C20.9276 32.4845 20.8505 32.4163 20.7529 32.3682C20.6553 32.32 20.5442 32.2959 20.4199 32.2959C20.2919 32.2959 20.1793 32.3227 20.083 32.376C19.9868 32.428 19.9126 32.5024 19.8594 32.5986C19.8074 32.695 19.7813 32.8093 19.7812 32.9424H19.1094C19.1094 32.6953 19.1656 32.4804 19.2783 32.2979C19.3912 32.1152 19.5473 31.9732 19.7451 31.873C19.9441 31.773 20.1724 31.7236 20.4297 31.7236ZM24.8828 32.3799L23.2275 35.6729H22.4951L24.1523 32.3926V32.3662H22.2285V31.7764H24.8828V32.3799ZM33.8223 35.6729H33.1162V32.4629H33.0938L32.1826 33.0449V32.3984L33.1504 31.7764H33.8223V35.6729ZM26.7461 32.3105C26.5039 32.3105 26.3117 32.4319 26.1709 32.6729C26.0303 32.9125 25.9593 33.2646 25.958 33.7285C25.9568 34.039 25.9884 34.3 26.0518 34.5117C26.1164 34.7234 26.2073 34.8834 26.3252 34.9912C26.4431 35.0977 26.5838 35.1514 26.7461 35.1514C26.9894 35.1513 27.1816 35.0315 27.3223 34.792C27.4643 34.5511 27.5351 34.1964 27.5352 33.7285C27.5352 33.4191 27.5032 33.1588 27.4385 32.9482C27.3738 32.7377 27.282 32.5792 27.1641 32.4727C27.0462 32.365 26.907 32.3106 26.7461 32.3105ZM30.2119 32.3105C29.9697 32.3105 29.7785 32.4319 29.6377 32.6729C29.497 32.9125 29.4251 33.2644 29.4238 33.7285C29.4226 34.039 29.4542 34.3 29.5176 34.5117C29.5822 34.7233 29.6732 34.8834 29.791 34.9912C29.909 35.0977 30.0496 35.1514 30.2119 35.1514C30.4553 35.1513 30.6473 35.0315 30.7881 34.792C30.9301 34.5511 31.001 34.1964 31.001 33.7285C31.001 33.4191 30.969 33.1588 30.9043 32.9482C30.8396 32.7377 30.7478 32.5792 30.6299 32.4727C30.512 32.365 30.3728 32.3106 30.2119 32.3105ZM24.2715 19.75C24.9364 19.7625 25.5965 19.8148 26.2539 19.9072H28.3945V22.5703L26.2539 22.5723V22.0049C25.9387 21.8374 25.1937 21.6602 24.4189 21.6602C23.4216 21.6602 23.0342 21.9526 23.0342 22.3301C23.0343 23.8925 28.7392 22.1001 28.7393 26C28.7393 27.615 27.659 28.9355 24.4189 28.9355C23.7165 28.923 23.0162 28.8698 22.3213 28.7773H20.1816V26.1152H22.3213V26.6826C22.6363 26.8501 23.3691 27.0273 24.209 27.0273C25.3214 27.0273 25.7714 26.7751 25.7715 26.3252C25.7715 24.8577 20.1196 26.5674 20.1191 22.6455C20.1191 20.653 21.8066 19.75 24.2715 19.75ZM33.9746 19.75C36.8044 19.7502 38.8291 21.3979 38.8291 24.3428C38.829 27.2875 36.8043 28.9354 33.9746 28.9355C31.1447 28.9355 29.1193 27.2901 29.1191 24.3428C29.1191 21.3953 31.1421 19.75 33.9746 19.75ZM19.5449 22.1318H18.1074V26.5967H19.5449V28.7988H13.8301V26.5967H15.2656V22.1318H13.8301V19.9287H19.5449V22.1318ZM5.48438 22.9834C5.62106 22.7412 5.96987 22.7411 6.10645 22.9834L6.84863 24.2998C6.89959 24.3902 6.98715 24.4541 7.08887 24.4746L8.57031 24.7734C8.84297 24.8285 8.95079 25.1604 8.7627 25.3652L7.74023 26.4785C7.67007 26.5548 7.63664 26.6578 7.64844 26.7607L7.82129 28.2627C7.85322 28.5389 7.57125 28.7443 7.31836 28.6289L5.94336 27.999C5.84914 27.956 5.74068 27.956 5.64648 27.999L4.27246 28.6289C4.01948 28.7447 3.73661 28.5391 3.76855 28.2627L3.94238 26.7607C3.95414 26.6579 3.9206 26.5548 3.85059 26.4785L2.82715 25.3652C2.63922 25.1604 2.74693 24.8284 3.01953 24.7734L4.50098 24.4746C4.60272 24.4541 4.69122 24.3902 4.74219 24.2998L5.48438 22.9834ZM46.5566 22.9834C46.6933 22.7412 47.0421 22.7411 47.1787 22.9834L47.9209 24.2998C47.9719 24.3902 48.0594 24.4541 48.1611 24.4746L49.6426 24.7734C49.9152 24.8285 50.0231 25.1604 49.835 25.3652L48.8125 26.4785C48.7423 26.5548 48.7089 26.6578 48.7207 26.7607L48.8936 28.2627C48.9255 28.5389 48.6435 28.7443 48.3906 28.6289L47.0156 27.999C46.9214 27.956 46.8129 27.956 46.7188 27.999L45.3447 28.6289C45.0917 28.7447 44.8089 28.5391 44.8408 28.2627L45.0146 26.7607C45.0264 26.6579 44.9929 26.5548 44.9229 26.4785L43.8994 25.3652C43.7115 25.1604 43.8192 24.8284 44.0918 24.7734L45.5732 24.4746C45.675 24.4541 45.7635 24.3902 45.8145 24.2998L46.5566 22.9834ZM33.9746 21.8379C32.8521 21.8379 32.1396 22.5503 32.1396 24.3428C32.1397 26.1351 32.8522 26.8477 33.9746 26.8477C35.0968 26.8475 35.8095 26.1349 35.8096 24.3428C35.8096 22.5505 35.0969 21.8381 33.9746 21.8379ZM26.9717 1.00781C38.5013 1.30005 48.089 9.39904 50.6514 20.2158H49.7334C47.1424 9.69555 37.6461 1.89261 26.3262 1.89258C15.0062 1.89258 5.50998 9.69553 2.91895 20.2158H2.00098C4.61107 9.19786 14.5103 1 26.3262 1L26.9717 1.00781ZM26.3213 2.7832C37.139 2.7832 46.2293 10.1827 48.8057 20.1963H43.7637C41.3346 12.8894 34.4438 7.61914 26.3213 7.61914C18.1989 7.61931 11.308 12.8895 8.87891 20.1963H3.83789C6.41413 10.1829 15.5038 2.78338 26.3213 2.7832Z" fill="url(#paint0_radial_8228_116971)"/>
<defs>
<radialGradient id="paint0_radial_8228_116971" cx="0" cy="0" r="1" gradientUnits="userSpaceOnUse" gradientTransform="translate(26.2126 1) rotate(90) scale(50 41.0214)">
<stop offset="0.461367" stop-color="#2E3038"/>
<stop offset="1" stop-color="#1C1D22"/>
</radialGradient>
</defs>
</svg>
