<svg width="14" height="13" viewBox="0 0 14 13" fill="none" xmlns="http://www.w3.org/2000/svg">
<rect x="4.97266" y="1.08984" width="4.1194" height="7.20895" rx="2.0597" fill="#ACACAC"/>
<path d="M10.1212 6.23828C10.3343 6.23847 10.5088 6.41215 10.4855 6.62402C10.3076 8.23544 9.02848 9.51338 7.41712 9.69141V11.002H8.5763C8.78947 11.0021 8.962 11.1745 8.96204 11.3877C8.96204 11.6009 8.7895 11.7743 8.5763 11.7744H5.48646C5.27321 11.7744 5.10072 11.601 5.10072 11.3877C5.10076 11.1745 5.27324 11.002 5.48646 11.002H6.64466V9.69141C5.0337 9.51302 3.75411 8.23515 3.5763 6.62402C3.553 6.41216 3.7284 6.23841 3.94154 6.23828C4.15483 6.23828 4.32549 6.41287 4.3556 6.62402C4.54271 7.93442 5.66925 8.94141 7.03138 8.94141C8.39349 8.94138 9.52006 7.93441 9.70716 6.62402C9.73727 6.41287 9.90794 6.23828 10.1212 6.23828Z" fill="#ACACAC"/>
</svg>
