<svg width="13" height="13" viewBox="0 0 13 13" fill="none" xmlns="http://www.w3.org/2000/svg">
<g clip-path="url(#clip0_8744_7495)">
<circle cx="4.58705" cy="4.17884" r="2.0597" fill="#ACACAC"/>
<circle cx="9.47802" cy="4.95263" r="1.80224" fill="#ACACAC"/>
<path d="M7.08035 10.874C7.63489 10.874 8.18942 10.181 8.18942 9.48767C8.18942 7.82407 6.23776 7.26953 4.58495 7.26953C2.93213 7.26953 0.980469 7.82407 0.980469 9.48767C0.980469 10.181 1.535 10.874 2.08954 10.874H7.08035Z" fill="#ACACAC"/>
<path d="M9.48047 7.7832C10.7791 7.7832 12.3125 8.25862 12.3125 9.68457C12.3125 10.2788 11.877 10.8729 11.4414 10.873H8.48633C8.76966 10.4989 8.96582 10.0068 8.96582 9.48633C8.96578 8.8358 8.7504 8.31105 8.41797 7.89648C8.76632 7.81872 9.13173 7.78321 9.48047 7.7832ZM7.62695 8.17383C7.97646 8.50224 8.19331 8.93261 8.19336 9.48633C8.19336 10.0808 7.7851 10.6736 7.31934 10.8311C6.96002 10.6875 6.64844 10.1867 6.64844 9.68457C6.64844 8.95039 7.05529 8.46887 7.62695 8.17383Z" fill="#ACACAC"/>
</g>
<defs>
<clipPath id="clip0_8744_7495">
<rect width="12.3582" height="12.3582" fill="white" transform="translate(0.464844 0.0605469)"/>
</clipPath>
</defs>
</svg>
