<svg width="13" height="13" viewBox="0 0 13 13" fill="none" xmlns="http://www.w3.org/2000/svg">
<mask id="mask0_8744_8033" style="mask-type:alpha" maskUnits="userSpaceOnUse" x="2" y="1" width="9" height="10">
<path d="M6.47903 10.3592C6.9937 10.3592 10.5982 8.29953 10.5982 3.66517C10.3327 3.6652 8.07359 3.15026 6.47903 1.60547C4.88447 3.15024 2.62507 3.6652 2.35938 3.66517C2.35938 8.29953 5.96436 10.3592 6.47903 10.3592Z" fill="#C4C4C4"/>
</mask>
<g mask="url(#mask0_8744_8033)">
<rect x="1.84766" y="1.08984" width="4.63433" height="4.89179" fill="#ACACAC"/>
<rect x="6.48047" y="5.98242" width="4.63433" height="4.89179" fill="#ACACAC"/>
</g>
<path d="M6.47903 10.3592C6.9937 10.3592 10.5982 8.29953 10.5982 3.66517C10.3327 3.6652 8.07359 3.15026 6.47903 1.60547C4.88447 3.15024 2.62507 3.6652 2.35938 3.66517C2.35938 8.29953 5.96436 10.3592 6.47903 10.3592Z" stroke="#ACACAC" stroke-width="0.514925" stroke-linejoin="round"/>
</svg>
