<svg width="14" height="13" viewBox="0 0 14 13" fill="none" xmlns="http://www.w3.org/2000/svg">
<g clip-path="url(#clip0_8744_3914)">
<path d="M11.19 1.08984V2.11969M11.19 3.14955V2.11969M11.19 2.11969H10.1602M11.19 2.11969H12.2199" stroke="#ACACAC" stroke-width="0.514925" stroke-linecap="round" stroke-linejoin="round"/>
<path d="M7.06738 1.60547C7.83409 1.60551 8.55736 1.7924 9.19434 2.12207C9.19271 2.14245 9.19142 2.16378 9.19141 2.18457C9.19182 2.61072 9.53765 2.95691 9.96387 2.95703H10.3389C10.3424 2.96051 10.3461 2.96428 10.3496 2.96777V3.34375C10.3501 3.76967 10.6961 4.11588 11.1221 4.11621C11.143 4.11619 11.1641 4.11394 11.1846 4.1123C11.5143 4.74935 11.7021 5.47243 11.7021 6.23926C11.702 8.7985 9.62663 10.8739 7.06738 10.874C4.50813 10.8739 2.43375 8.79851 2.43359 6.23926C2.43373 3.67999 4.50812 1.60561 7.06738 1.60547ZM8.92188 6.58789C8.7949 6.52449 8.6399 6.57636 8.57617 6.70312C8.44092 6.97348 8.26716 7.22705 8.03027 7.41211C7.79798 7.59334 7.49194 7.71958 7.06934 7.71973C6.64632 7.71973 6.33988 7.59347 6.10742 7.41211C5.92959 7.27329 5.78685 7.0963 5.66992 6.90234L5.56152 6.70312L5.5332 6.65918C5.45932 6.56527 5.32693 6.53258 5.21582 6.58789C5.10466 6.64347 5.05125 6.7692 5.08203 6.88477L5.10059 6.93359L5.22852 7.16699C5.3692 7.40057 5.55065 7.63042 5.79004 7.81738C6.11413 8.07037 6.53272 8.23438 7.06934 8.23438C7.60561 8.23423 8.02373 8.07026 8.34766 7.81738C8.66669 7.5681 8.88278 7.24211 9.03711 6.93359C9.10035 6.80654 9.04884 6.65145 8.92188 6.58789ZM5.91016 4.50195C5.59022 4.50195 5.33105 4.76112 5.33105 5.08105C5.33113 5.40093 5.59027 5.66016 5.91016 5.66016C6.22999 5.66009 6.48919 5.40089 6.48926 5.08105C6.48926 4.76116 6.23004 4.50202 5.91016 4.50195ZM8.22754 4.50195C7.90761 4.50195 7.64746 4.76112 7.64746 5.08105C7.64753 5.40093 7.90765 5.66016 8.22754 5.66016C8.54727 5.65998 8.80657 5.40082 8.80664 5.08105C8.80664 4.76123 8.54732 4.50213 8.22754 4.50195Z" fill="#ACACAC"/>
</g>
<defs>
<clipPath id="clip0_8744_3914">
<rect width="12.3582" height="12.3582" fill="white" transform="translate(0.890625 0.0605469)"/>
</clipPath>
</defs>
</svg>
