<svg width="32" height="32" viewBox="0 0 32 32" fill="none" xmlns="http://www.w3.org/2000/svg">
<path d="M21.3828 21.1063V14.3058C21.3828 14.1428 21.4475 13.9866 21.5628 13.8714C21.678 13.7561 21.8342 13.6914 21.9972 13.6914H28.8799C29.034 13.6914 29.1867 13.7218 29.3291 13.7808C29.4716 13.8398 29.601 13.9262 29.71 14.0353C29.819 14.1443 29.9055 14.2737 29.9645 14.4161C30.0235 14.5586 30.0539 14.7112 30.0539 14.8654V21.1063C30.0539 22.2525 29.5986 23.3517 28.7881 24.1621C27.9777 24.9725 26.8785 25.4278 25.7324 25.4278H25.7007C24.5552 25.4269 23.4569 24.9712 22.6473 24.1608C21.8376 23.3505 21.3828 22.2518 21.3828 21.1063Z" fill="#5059C9"/>
<path d="M25.7155 12.1615C27.2649 12.1615 28.5209 10.9055 28.5209 9.35614C28.5209 7.80678 27.2649 6.55078 25.7155 6.55078C24.1662 6.55078 22.9102 7.80678 22.9102 9.35614C22.9102 10.9055 24.1662 12.1615 25.7155 12.1615Z" fill="#5059C9"/>
<path d="M25.3896 25.7393C25.3315 25.7369 25.2719 25.7333 25.2109 25.7285C25.2695 25.7333 25.3291 25.7369 25.3896 25.7393Z" fill="#5059C9"/>
<path d="M16.7914 12.1604C19.0448 12.1604 20.8716 10.3336 20.8716 8.0802C20.8716 5.82677 19.0448 4 16.7914 4C14.5379 4 12.7112 5.82677 12.7112 8.0802C12.7112 10.3336 14.5379 12.1604 16.7914 12.1604Z" fill="#7B83EB"/>
<path d="M23.2506 13.6875H11.35C11.1946 13.6867 11.0406 13.7164 10.8967 13.7751C10.7528 13.8338 10.6218 13.9202 10.5113 14.0295C10.4008 14.1388 10.313 14.2688 10.2527 14.412C10.1925 14.5553 10.161 14.709 10.1602 14.8644V21.9264C10.1868 23.8026 10.9508 25.593 12.287 26.9104C13.6233 28.2277 15.4243 28.9662 17.3007 28.9662C19.1771 28.9662 20.9781 28.2277 22.3143 26.9104C23.6505 25.593 24.4146 23.8026 24.4412 21.9264V14.868C24.4408 14.7122 24.4097 14.5581 24.3496 14.4144C24.2895 14.2707 24.2017 14.1402 24.091 14.0305C23.9804 13.9209 23.8493 13.8341 23.705 13.7753C23.5608 13.7164 23.4064 13.6866 23.2506 13.6875Z" fill="#7B83EB"/>
<path opacity="0.2" d="M16.7872 13.6875V24.2341C16.7883 24.3026 16.7816 24.371 16.767 24.4379C16.7205 24.7138 16.5776 24.9643 16.3636 25.1447C16.1496 25.325 15.8786 25.4235 15.5987 25.4225H11.095C10.9962 25.2573 10.906 25.0871 10.825 24.9125C10.7436 24.744 10.6715 24.5762 10.6089 24.4026C10.3108 23.6119 10.1588 22.7736 10.1602 21.9286V14.8701C10.16 14.715 10.1904 14.5613 10.2496 14.4178C10.3088 14.2744 10.3957 14.1441 10.5054 14.0342C10.615 13.9244 10.7452 13.8373 10.8885 13.7778C11.0318 13.7183 11.1855 13.6876 11.3406 13.6875H16.7872Z" fill="black"/>
<path opacity="0.2" d="M16.792 10.7992V12.1612C16.6215 12.1612 16.4512 12.1509 16.2821 12.1302C15.5617 12.0385 14.8787 11.7566 14.3033 11.3136C13.7278 10.8706 13.2807 10.2824 13.0078 9.60938H15.6007C15.7565 9.60909 15.9108 9.6395 16.0548 9.69885C16.1989 9.7582 16.3298 9.84534 16.4401 9.95529C16.5505 10.0652 16.6381 10.1959 16.698 10.3397C16.7579 10.4835 16.7888 10.6377 16.7891 10.7935C16.7891 10.7935 16.792 10.7978 16.792 10.7992Z" fill="black"/>
<path opacity="0.1" d="M17.2971 13.6875V23.2135C17.2928 23.6626 17.1125 24.092 16.7949 24.4096C16.4773 24.7272 16.0478 24.9075 15.5987 24.9118H10.825C10.7436 24.7433 10.6715 24.5755 10.6089 24.4019C10.3108 23.6112 10.1588 22.7729 10.1602 21.9278V14.8694C10.1601 14.7143 10.1905 14.5607 10.2498 14.4173C10.3091 14.274 10.396 14.1437 10.5056 14.034C10.6152 13.9242 10.7454 13.8371 10.8887 13.7777C11.032 13.7182 11.1855 13.6876 11.3406 13.6875H17.2971Z" fill="black"/>
<path opacity="0.1" d="M17.3025 10.7994V12.1304C16.9638 12.1712 16.6214 12.1712 16.2826 12.1304C15.5622 12.0386 14.8793 11.7568 14.3038 11.3138C13.7284 10.8707 13.2813 10.2825 13.0084 9.60954C12.9415 9.44328 12.8852 9.27296 12.8398 9.09961H15.6041C16.0544 9.10113 16.4857 9.28075 16.8039 9.59923C17.1221 9.91771 17.3014 10.3492 17.3025 10.7994Z" fill="black"/>
<path opacity="0.2" d="M16.7908 13.6875V23.2135C16.791 23.3693 16.7606 23.5236 16.7013 23.6676C16.6419 23.8116 16.5548 23.9426 16.4448 24.0529C16.3349 24.1633 16.2043 24.2509 16.0605 24.3108C15.9166 24.3706 15.7624 24.4016 15.6067 24.4019H10.6089C10.3108 23.6112 10.1588 22.7729 10.1602 21.9278V14.8694C10.1601 14.714 10.1906 14.5601 10.2501 14.4165C10.3096 14.2729 10.3969 14.1425 10.5069 14.0327C10.6169 13.9229 10.7475 13.8359 10.8912 13.7767C11.0349 13.7174 11.1888 13.6871 11.3443 13.6875H16.7908Z" fill="black"/>
<path opacity="0.2" d="M16.792 10.7992V12.1612C16.6215 12.1612 16.4512 12.1509 16.2821 12.1302C15.5617 12.0385 14.8787 11.7566 14.3033 11.3136C13.7278 10.8706 13.2807 10.2824 13.0078 9.60938H15.6007C15.7565 9.60909 15.9108 9.6395 16.0548 9.69885C16.1989 9.7582 16.3298 9.84534 16.4401 9.95529C16.5505 10.0652 16.6381 10.1959 16.698 10.3397C16.7579 10.4835 16.7888 10.6377 16.7891 10.7935C16.7891 10.7935 16.792 10.7978 16.792 10.7992Z" fill="black"/>
<path opacity="0.1" d="M16.2821 10.7992V12.1302C15.5617 12.0385 14.8787 11.7566 14.3033 11.3136C13.7278 10.8706 13.2807 10.2824 13.0078 9.60938H15.0965C15.2523 9.60909 15.4066 9.6395 15.5506 9.69885C15.6947 9.7582 15.8256 9.84534 15.936 9.95529C16.0463 10.0652 16.1339 10.1959 16.1938 10.3397C16.2537 10.4835 16.2846 10.6377 16.2849 10.7935C16.2849 10.7935 16.2821 10.7978 16.2821 10.7992Z" fill="black"/>
<path opacity="0.1" d="M11.3479 13.6875H16.2801V23.2135C16.2804 23.3693 16.25 23.5236 16.1906 23.6676C16.1313 23.8116 16.0441 23.9426 15.9342 24.0529C15.8242 24.1633 15.6936 24.2509 15.5498 24.3108C15.406 24.3706 15.2518 24.4016 15.096 24.4019H10.6089C10.3108 23.6112 10.1588 22.7729 10.1602 21.9278V14.8694C10.1601 14.7141 10.1906 14.5602 10.2501 14.4167C10.3095 14.2731 10.3967 14.1427 10.5066 14.033C10.6166 13.9232 10.7471 13.8361 10.8907 13.7769C11.0343 13.7176 11.1882 13.6872 11.3435 13.6875H11.3479Z" fill="black"/>
<path d="M15.0912 9.61133H3.18985C2.53271 9.61133 2 10.144 2 10.8012V22.7025C2 23.3597 2.53271 23.8924 3.18985 23.8924H15.0912C15.7483 23.8924 16.281 23.3597 16.281 22.7025V10.8012C16.281 10.144 15.7483 9.61133 15.0912 9.61133Z" fill="#4B53BC"/>
<path d="M12.2074 13.9611H9.87887V20.6025H8.39372V13.9611H6.07812V12.6719H12.2074V13.9611Z" fill="white"/>
</svg>
