<svg width="32" height="32" viewBox="0 0 32 32" fill="none" xmlns="http://www.w3.org/2000/svg">
<g clip-path="url(#clip0_4424_454969)">
<mask id="mask0_4424_454969" style="mask-type:luminance" maskUnits="userSpaceOnUse" x="1" y="5" width="31" height="22">
<path d="M31.1834 5H1V27H31.1834V5Z" fill="white"/>
</mask>
<g mask="url(#mask0_4424_454969)">
<path d="M10.3653 26.9128C4.77632 26.9128 2.87411 19.8349 2.44788 18.458C1.37749 15.0004 1.0521 11.8859 1.01765 11.559C0.818893 9.67306 2.32944 8.36067 3.98729 8.36067C5.24258 8.36067 6.69945 9.11309 6.89243 10.9387C6.92593 11.2458 7.1811 13.8941 8.08393 16.7797C9.02605 19.7914 10.0256 20.9495 10.7453 20.9495C11.9077 20.9495 12.6168 17.96 13.2438 15.1134C13.7057 13.0162 14.205 10.9029 15.1908 9.0257C16.9058 5.75995 19.4973 5 21.7361 5C26.6452 5 29.1022 10.6956 29.1022 12.1712C29.1022 14.6373 27.0937 15.2663 26.2231 15.2663C24.319 15.2663 23.6736 13.9887 23.1303 12.8689C22.6416 11.8615 22.1312 11.0238 21.4713 11.0238C21.2545 11.0238 21.0536 11.1338 20.8678 11.323C19.2277 12.9922 18.6777 21.7249 15.3984 25.0626C13.5804 26.9128 11.6023 26.9128 10.3653 26.9128Z" fill="url(#paint0_linear_4424_454969)"/>
<path d="M10.3653 26.9128C4.77632 26.9128 2.87411 19.8349 2.44788 18.458C1.37749 15.0004 1.0521 11.8859 1.01765 11.559C0.818893 9.67306 2.32944 8.36067 3.98729 8.36067C5.24258 8.36067 6.69945 9.11309 6.89243 10.9387C6.92593 11.2458 7.1811 13.8941 8.08393 16.7797C9.02605 19.7914 10.0256 20.9495 10.7453 20.9495C11.9077 20.9495 12.6168 17.96 13.2438 15.1134C13.7057 13.0162 14.205 10.9029 15.1908 9.0257C16.9058 5.75995 19.4973 5 21.7361 5C26.6452 5 29.1022 10.6956 29.1022 12.1712C29.1022 14.6373 27.0937 15.2663 26.2231 15.2663C24.319 15.2663 23.6736 13.9887 23.1303 12.8689C22.6416 11.8615 22.1312 11.0238 21.4713 11.0238C21.2545 11.0238 21.0536 11.1338 20.8678 11.323C19.2277 12.9922 18.6777 21.7249 15.3984 25.0626C13.5804 26.9128 11.6023 26.9128 10.3653 26.9128Z" fill="url(#paint1_radial_4424_454969)"/>
<path d="M10.3653 26.9128C4.77632 26.9128 2.87411 19.8349 2.44788 18.458C1.37749 15.0004 1.0521 11.8859 1.01765 11.559C0.818893 9.67306 2.32944 8.36067 3.98729 8.36067C5.24258 8.36067 6.69945 9.11309 6.89243 10.9387C6.92593 11.2458 7.1811 13.8941 8.08393 16.7797C9.02605 19.7914 10.0256 20.9495 10.7453 20.9495C11.9077 20.9495 12.6168 17.96 13.2438 15.1134C13.7057 13.0162 14.205 10.9029 15.1908 9.0257C16.9058 5.75995 19.4973 5 21.7361 5C26.6452 5 29.1022 10.6956 29.1022 12.1712C29.1022 14.6373 27.0937 15.2663 26.2231 15.2663C24.319 15.2663 23.6736 13.9887 23.1303 12.8689C22.6416 11.8615 22.1312 11.0238 21.4713 11.0238C21.2545 11.0238 21.0536 11.1338 20.8678 11.323C19.2277 12.9922 18.6777 21.7249 15.3984 25.0626C13.5804 26.9128 11.6023 26.9128 10.3653 26.9128Z" fill="url(#paint2_radial_4424_454969)"/>
<path d="M10.3653 26.9128C4.77632 26.9128 2.87411 19.8349 2.44788 18.458C1.37749 15.0004 1.0521 11.8859 1.01765 11.559C0.818893 9.67306 2.32944 8.36067 3.98729 8.36067C5.24258 8.36067 6.69945 9.11309 6.89243 10.9387C6.92593 11.2458 7.1811 13.8941 8.08393 16.7797C9.02605 19.7914 10.0256 20.9495 10.7453 20.9495C11.9077 20.9495 12.6168 17.96 13.2438 15.1134C13.7057 13.0162 14.205 10.9029 15.1908 9.0257C16.9058 5.75995 19.4973 5 21.7361 5C26.6452 5 29.1022 10.6956 29.1022 12.1712C29.1022 14.6373 27.0937 15.2663 26.2231 15.2663C24.319 15.2663 23.6736 13.9887 23.1303 12.8689C22.6416 11.8615 22.1312 11.0238 21.4713 11.0238C21.2545 11.0238 21.0536 11.1338 20.8678 11.323C19.2277 12.9922 18.6777 21.7249 15.3984 25.0626C13.5804 26.9128 11.6023 26.9128 10.3653 26.9128Z" fill="url(#paint3_radial_4424_454969)"/>
<path d="M10.3653 26.9128C4.77632 26.9128 2.87411 19.8349 2.44788 18.458C1.37749 15.0004 1.0521 11.8859 1.01765 11.559C0.818893 9.67306 2.32944 8.36067 3.98729 8.36067C5.24258 8.36067 6.69945 9.11309 6.89243 10.9387C6.92593 11.2458 7.1811 13.8941 8.08393 16.7797C9.02605 19.7914 10.0256 20.9495 10.7453 20.9495C11.9077 20.9495 12.6168 17.96 13.2438 15.1134C13.7057 13.0162 14.205 10.9029 15.1908 9.0257C16.9058 5.75995 19.4973 5 21.7361 5C26.6452 5 29.1022 10.6956 29.1022 12.1712C29.1022 14.6373 27.0937 15.2663 26.2231 15.2663C24.319 15.2663 23.6736 13.9887 23.1303 12.8689C22.6416 11.8615 22.1312 11.0238 21.4713 11.0238C21.2545 11.0238 21.0536 11.1338 20.8678 11.323C19.2277 12.9922 18.6777 21.7249 15.3984 25.0626C13.5804 26.9128 11.6023 26.9128 10.3653 26.9128Z" fill="url(#paint4_radial_4424_454969)"/>
<path d="M10.3653 26.9128C4.77632 26.9128 2.87411 19.8349 2.44788 18.458C1.37749 15.0004 1.0521 11.8859 1.01765 11.559C0.818893 9.67306 2.32944 8.36067 3.98729 8.36067C5.24258 8.36067 6.69945 9.11309 6.89243 10.9387C6.92593 11.2458 7.1811 13.8941 8.08393 16.7797C9.02605 19.7914 10.0256 20.9495 10.7453 20.9495C11.9077 20.9495 12.6168 17.96 13.2438 15.1134C13.7057 13.0162 14.205 10.9029 15.1908 9.0257C16.9058 5.75995 19.4973 5 21.7361 5C26.6452 5 29.1022 10.6956 29.1022 12.1712C29.1022 14.6373 27.0937 15.2663 26.2231 15.2663C24.319 15.2663 23.6736 13.9887 23.1303 12.8689C22.6416 11.8615 22.1312 11.0238 21.4713 11.0238C21.2545 11.0238 21.0536 11.1338 20.8678 11.323C19.2277 12.9922 18.6777 21.7249 15.3984 25.0626C13.5804 26.9128 11.6023 26.9128 10.3653 26.9128Z" fill="url(#paint5_radial_4424_454969)"/>
<path d="M10.3653 26.9128C4.77632 26.9128 2.87411 19.8349 2.44788 18.458C1.37749 15.0004 1.0521 11.8859 1.01765 11.559C0.818893 9.67306 2.32944 8.36067 3.98729 8.36067C5.24258 8.36067 6.69945 9.11309 6.89243 10.9387C6.92593 11.2458 7.1811 13.8941 8.08393 16.7797C9.02605 19.7914 10.0256 20.9495 10.7453 20.9495C11.9077 20.9495 12.6168 17.96 13.2438 15.1134C13.7057 13.0162 14.205 10.9029 15.1908 9.0257C16.9058 5.75995 19.4973 5 21.7361 5C26.6452 5 29.1022 10.6956 29.1022 12.1712C29.1022 14.6373 27.0937 15.2663 26.2231 15.2663C24.319 15.2663 23.6736 13.9887 23.1303 12.8689C22.6416 11.8615 22.1312 11.0238 21.4713 11.0238C21.2545 11.0238 21.0536 11.1338 20.8678 11.323C19.2277 12.9922 18.6777 21.7249 15.3984 25.0626C13.5804 26.9128 11.6023 26.9128 10.3653 26.9128Z" fill="url(#paint6_radial_4424_454969)"/>
<path d="M10.3653 26.9128C4.77632 26.9128 2.87411 19.8349 2.44788 18.458C1.37749 15.0004 1.0521 11.8859 1.01765 11.559C0.818893 9.67306 2.32944 8.36067 3.98729 8.36067C5.24258 8.36067 6.69945 9.11309 6.89243 10.9387C6.92593 11.2458 7.1811 13.8941 8.08393 16.7797C9.02605 19.7914 10.0256 20.9495 10.7453 20.9495C11.9077 20.9495 12.6168 17.96 13.2438 15.1134C13.7057 13.0162 14.205 10.9029 15.1908 9.0257C16.9058 5.75995 19.4973 5 21.7361 5C26.6452 5 29.1022 10.6956 29.1022 12.1712C29.1022 14.6373 27.0937 15.2663 26.2231 15.2663C24.319 15.2663 23.6736 13.9887 23.1303 12.8689C22.6416 11.8615 22.1312 11.0238 21.4713 11.0238C21.2545 11.0238 21.0536 11.1338 20.8678 11.323C19.2277 12.9922 18.6777 21.7249 15.3984 25.0626C13.5804 26.9128 11.6023 26.9128 10.3653 26.9128Z" fill="url(#paint7_linear_4424_454969)"/>
<path d="M10.3653 26.9128C4.77632 26.9128 2.87411 19.8349 2.44788 18.458C1.37749 15.0004 1.0521 11.8859 1.01765 11.559C0.818893 9.67306 2.32944 8.36067 3.98729 8.36067C5.24258 8.36067 6.69945 9.11309 6.89243 10.9387C6.92593 11.2458 7.1811 13.8941 8.08393 16.7797C9.02605 19.7914 10.0256 20.9495 10.7453 20.9495C11.9077 20.9495 12.6168 17.96 13.2438 15.1134C13.7057 13.0162 14.205 10.9029 15.1908 9.0257C16.9058 5.75995 19.4973 5 21.7361 5C26.6452 5 29.1022 10.6956 29.1022 12.1712C29.1022 14.6373 27.0937 15.2663 26.2231 15.2663C24.319 15.2663 23.6736 13.9887 23.1303 12.8689C22.6416 11.8615 22.1312 11.0238 21.4713 11.0238C21.2545 11.0238 21.0536 11.1338 20.8678 11.323C19.2277 12.9922 18.6777 21.7249 15.3984 25.0626C13.5804 26.9128 11.6023 26.9128 10.3653 26.9128Z" fill="url(#paint8_radial_4424_454969)"/>
<path d="M21.7377 5C19.4989 5 16.9074 5.75995 15.1923 9.0257C14.2065 10.9029 13.7073 13.0162 13.2454 15.1134C13.0933 15.8035 12.9364 16.502 12.7695 17.1643V26.653C13.6167 26.4129 14.5268 25.9512 15.4 25.0626C18.6792 21.7249 19.2292 12.9922 20.8693 11.323C21.0552 11.1338 21.2561 11.0238 21.4729 11.0238C22.1328 11.0238 22.6432 11.8615 23.1318 12.8689C23.6751 13.9887 24.3206 15.2663 26.2247 15.2663C27.0952 15.2663 29.1038 14.6373 29.1038 12.1712C29.1038 10.6956 26.6468 5 21.7377 5Z" fill="url(#paint9_radial_4424_454969)"/>
<path d="M10.3653 26.9128C4.77632 26.9128 2.87411 19.8349 2.44788 18.458C1.37749 15.0004 1.0521 11.8859 1.01765 11.559C0.818893 9.67306 2.32944 8.36067 3.98729 8.36067C5.24258 8.36067 6.69945 9.11309 6.89243 10.9387C6.92593 11.2458 7.1811 13.8941 8.08393 16.7797C9.02605 19.7914 10.0256 20.9495 10.7453 20.9495C11.9077 20.9495 12.6168 17.96 13.2438 15.1134C13.7057 13.0162 14.205 10.9029 15.1908 9.0257C16.9058 5.75995 19.4973 5 21.7361 5C26.6452 5 29.1022 10.6956 29.1022 12.1712C29.1022 14.6373 27.0937 15.2663 26.2231 15.2663C24.319 15.2663 23.6736 13.9887 23.1303 12.8689C22.6416 11.8615 22.1312 11.0238 21.4713 11.0238C21.2545 11.0238 21.0536 11.1338 20.8678 11.323C19.2277 12.9922 18.6777 21.7249 15.3984 25.0626C13.5804 26.9128 11.6023 26.9128 10.3653 26.9128Z" fill="url(#paint10_radial_4424_454969)"/>
<path d="M10.3653 26.9128C4.77632 26.9128 2.87411 19.8349 2.44788 18.458C1.37749 15.0004 1.0521 11.8859 1.01765 11.559C0.818893 9.67306 2.32944 8.36067 3.98729 8.36067C5.24258 8.36067 6.69945 9.11309 6.89243 10.9387C6.92593 11.2458 7.1811 13.8941 8.08393 16.7797C9.02605 19.7914 10.0256 20.9495 10.7453 20.9495C11.9077 20.9495 12.6168 17.96 13.2438 15.1134C13.7057 13.0162 14.205 10.9029 15.1908 9.0257C16.9058 5.75995 19.4973 5 21.7361 5C26.6452 5 29.1022 10.6956 29.1022 12.1712C29.1022 14.6373 27.0937 15.2663 26.2231 15.2663C24.319 15.2663 23.6736 13.9887 23.1303 12.8689C22.6416 11.8615 22.1312 11.0238 21.4713 11.0238C21.2545 11.0238 21.0536 11.1338 20.8678 11.323C19.2277 12.9922 18.6777 21.7249 15.3984 25.0626C13.5804 26.9128 11.6023 26.9128 10.3653 26.9128Z" fill="url(#paint11_radial_4424_454969)"/>
<path d="M10.3653 26.9128C4.77632 26.9128 2.87411 19.8349 2.44788 18.458C1.37749 15.0004 1.0521 11.8859 1.01765 11.559C0.818893 9.67306 2.32944 8.36067 3.98729 8.36067C5.24258 8.36067 6.69945 9.11309 6.89243 10.9387C6.92593 11.2458 7.1811 13.8941 8.08393 16.7797C9.02605 19.7914 10.0256 20.9495 10.7453 20.9495C11.9077 20.9495 12.6168 17.96 13.2438 15.1134C13.7057 13.0162 14.205 10.9029 15.1908 9.0257C16.9058 5.75995 19.4973 5 21.7361 5C26.6452 5 29.1022 10.6956 29.1022 12.1712C29.1022 14.6373 27.0937 15.2663 26.2231 15.2663C24.319 15.2663 23.6736 13.9887 23.1303 12.8689C22.6416 11.8615 22.1312 11.0238 21.4713 11.0238C21.2545 11.0238 21.0536 11.1338 20.8678 11.323C19.2277 12.9922 18.6777 21.7249 15.3984 25.0626C13.5804 26.9128 11.6023 26.9128 10.3653 26.9128Z" fill="url(#paint12_radial_4424_454969)"/>
<path d="M10.3653 26.9128C4.77632 26.9128 2.87411 19.8349 2.44788 18.458C1.37749 15.0004 1.0521 11.8859 1.01765 11.559C0.818893 9.67306 2.32944 8.36067 3.98729 8.36067C5.24258 8.36067 6.69945 9.11309 6.89243 10.9387C6.92593 11.2458 7.1811 13.8941 8.08393 16.7797C9.02605 19.7914 10.0256 20.9495 10.7453 20.9495C11.9077 20.9495 12.6168 17.96 13.2438 15.1134C13.7057 13.0162 14.205 10.9029 15.1908 9.0257C16.9058 5.75995 19.4973 5 21.7361 5C26.6452 5 29.1022 10.6956 29.1022 12.1712C29.1022 14.6373 27.0937 15.2663 26.2231 15.2663C24.319 15.2663 23.6736 13.9887 23.1303 12.8689C22.6416 11.8615 22.1312 11.0238 21.4713 11.0238C21.2545 11.0238 21.0536 11.1338 20.8678 11.323C19.2277 12.9922 18.6777 21.7249 15.3984 25.0626C13.5804 26.9128 11.6023 26.9128 10.3653 26.9128Z" fill="url(#paint13_radial_4424_454969)"/>
<path d="M10.3653 26.9128C4.77632 26.9128 2.87411 19.8349 2.44788 18.458C1.37749 15.0004 1.0521 11.8859 1.01765 11.559C0.818893 9.67306 2.32944 8.36067 3.98729 8.36067C5.24258 8.36067 6.69945 9.11309 6.89243 10.9387C6.92593 11.2458 7.1811 13.8941 8.08393 16.7797C9.02605 19.7914 10.0256 20.9495 10.7453 20.9495C11.9077 20.9495 12.6168 17.96 13.2438 15.1134C13.7057 13.0162 14.205 10.9029 15.1908 9.0257C16.9058 5.75995 19.4973 5 21.7361 5C26.6452 5 29.1022 10.6956 29.1022 12.1712C29.1022 14.6373 27.0937 15.2663 26.2231 15.2663C24.319 15.2663 23.6736 13.9887 23.1303 12.8689C22.6416 11.8615 22.1312 11.0238 21.4713 11.0238C21.2545 11.0238 21.0536 11.1338 20.8678 11.323C19.2277 12.9922 18.6777 21.7249 15.3984 25.0626C13.5804 26.9128 11.6023 26.9128 10.3653 26.9128Z" fill="url(#paint14_radial_4424_454969)"/>
<path d="M28.1981 8.36067C27.9768 8.36067 27.7542 8.38153 27.5359 8.42462C28.5736 9.92305 29.0928 11.4928 29.0928 12.1711C29.0928 14.6371 27.0842 15.2662 26.2137 15.2662C25.5343 15.2662 25.0153 15.1034 24.6039 14.8434C24.6 14.8587 24.5962 14.8741 24.5924 14.8895C24.47 15.379 24.3735 15.9146 24.2063 16.4359C23.8849 17.4381 23.4514 18.5831 22.9884 19.469C22.4894 20.4241 21.9954 20.9829 21.4065 20.9536C20.7368 20.9202 20.1938 20.0558 19.519 17.6128C19.3013 16.825 19.0998 15.9614 18.913 15.1134C18.4498 13.01 17.8811 10.8949 16.9089 9.02569C15.3209 5.97302 12.6119 5 10.4492 5C8.4436 5 6.94516 5.95087 5.76805 7.14892C5.44269 7.48006 5.08742 7.92608 4.73047 8.45035C5.75716 8.69798 6.72798 9.47186 6.88304 10.9386C6.91357 11.2182 7.12786 13.4392 7.84769 16.0131C8.05422 15.3678 8.35537 14.4121 9.05503 12.8689C9.39789 12.1622 9.70734 11.6961 9.98649 11.412C10.2426 11.1514 10.4732 11.0438 10.6807 11.0438C10.9046 11.0438 11.6691 11.249 12.4134 13.8643C13.3364 17.1074 14.0234 22.2687 16.6405 25.0091C17.7947 26.218 19.4101 27 21.6488 27C23.6132 27 25.251 26.1336 26.4187 24.9285C28.3387 22.9468 29.3907 19.6704 29.7659 18.458C30.8338 15.0087 31.1329 11.8891 31.1677 11.559C31.3665 9.67306 29.7798 8.36067 28.1981 8.36067Z" fill="#316AFF"/>
<path d="M28.1981 8.36067C27.9768 8.36067 27.7542 8.38153 27.5359 8.42462C28.5736 9.92305 29.0928 11.4928 29.0928 12.1711C29.0928 14.6371 27.0842 15.2662 26.2137 15.2662C25.5343 15.2662 25.0153 15.1034 24.6039 14.8434C24.6 14.8587 24.5962 14.8741 24.5924 14.8895C24.47 15.379 24.3735 15.9146 24.2063 16.4359C23.8849 17.4381 23.4514 18.5831 22.9884 19.469C22.4894 20.4241 21.9954 20.9829 21.4065 20.9536C20.7368 20.9202 20.1938 20.0558 19.519 17.6128C19.3013 16.825 19.0998 15.9614 18.913 15.1134C18.4498 13.01 17.8811 10.8949 16.9089 9.02569C15.3209 5.97302 12.6119 5 10.4492 5C8.4436 5 6.94516 5.95087 5.76805 7.14892C5.44269 7.48006 5.08742 7.92608 4.73047 8.45035C5.75716 8.69798 6.72798 9.47186 6.88304 10.9386C6.91357 11.2182 7.12786 13.4392 7.84769 16.0131C8.05422 15.3678 8.35537 14.4121 9.05503 12.8689C9.39789 12.1622 9.70734 11.6961 9.98649 11.412C10.2426 11.1514 10.4732 11.0438 10.6807 11.0438C10.9046 11.0438 11.6691 11.249 12.4134 13.8643C13.3364 17.1074 14.0234 22.2687 16.6405 25.0091C17.7947 26.218 19.4101 27 21.6488 27C23.6132 27 25.251 26.1336 26.4187 24.9285C28.3387 22.9468 29.3907 19.6704 29.7659 18.458C30.8338 15.0087 31.1329 11.8891 31.1677 11.559C31.3665 9.67306 29.7798 8.36067 28.1981 8.36067Z" fill="url(#paint15_radial_4424_454969)"/>
<path d="M28.1981 8.36067C27.9768 8.36067 27.7542 8.38153 27.5359 8.42462C28.5736 9.92305 29.0928 11.4928 29.0928 12.1711C29.0928 14.6371 27.0842 15.2662 26.2137 15.2662C25.5343 15.2662 25.0153 15.1034 24.6039 14.8434C24.6 14.8587 24.5962 14.8741 24.5924 14.8895C24.47 15.379 24.3735 15.9146 24.2063 16.4359C23.8849 17.4381 23.4514 18.5831 22.9884 19.469C22.4894 20.4241 21.9954 20.9829 21.4065 20.9536C20.7368 20.9202 20.1938 20.0558 19.519 17.6128C19.3013 16.825 19.0998 15.9614 18.913 15.1134C18.4498 13.01 17.8811 10.8949 16.9089 9.02569C15.3209 5.97302 12.6119 5 10.4492 5C8.4436 5 6.94516 5.95087 5.76805 7.14892C5.44269 7.48006 5.08742 7.92608 4.73047 8.45035C5.75716 8.69798 6.72798 9.47186 6.88304 10.9386C6.91357 11.2182 7.12786 13.4392 7.84769 16.0131C8.05422 15.3678 8.35537 14.4121 9.05503 12.8689C9.39789 12.1622 9.70734 11.6961 9.98649 11.412C10.2426 11.1514 10.4732 11.0438 10.6807 11.0438C10.9046 11.0438 11.6691 11.249 12.4134 13.8643C13.3364 17.1074 14.0234 22.2687 16.6405 25.0091C17.7947 26.218 19.4101 27 21.6488 27C23.6132 27 25.251 26.1336 26.4187 24.9285C28.3387 22.9468 29.3907 19.6704 29.7659 18.458C30.8338 15.0087 31.1329 11.8891 31.1677 11.559C31.3665 9.67306 29.7798 8.36067 28.1981 8.36067Z" fill="url(#paint16_radial_4424_454969)"/>
<path d="M28.1981 8.36067C27.9768 8.36067 27.7542 8.38153 27.5359 8.42462C28.5736 9.92305 29.0928 11.4928 29.0928 12.1711C29.0928 14.6371 27.0842 15.2662 26.2137 15.2662C25.5343 15.2662 25.0153 15.1034 24.6039 14.8434C24.6 14.8587 24.5962 14.8741 24.5924 14.8895C24.47 15.379 24.3735 15.9146 24.2063 16.4359C23.8849 17.4381 23.4514 18.5831 22.9884 19.469C22.4894 20.4241 21.9954 20.9829 21.4065 20.9536C20.7368 20.9202 20.1938 20.0558 19.519 17.6128C19.3013 16.825 19.0998 15.9614 18.913 15.1134C18.4498 13.01 17.8811 10.8949 16.9089 9.02569C15.3209 5.97302 12.6119 5 10.4492 5C8.4436 5 6.94516 5.95087 5.76805 7.14892C5.44269 7.48006 5.08742 7.92608 4.73047 8.45035C5.75716 8.69798 6.72798 9.47186 6.88304 10.9386C6.91357 11.2182 7.12786 13.4392 7.84769 16.0131C8.05422 15.3678 8.35537 14.4121 9.05503 12.8689C9.39789 12.1622 9.70734 11.6961 9.98649 11.412C10.2426 11.1514 10.4732 11.0438 10.6807 11.0438C10.9046 11.0438 11.6691 11.249 12.4134 13.8643C13.3364 17.1074 14.0234 22.2687 16.6405 25.0091C17.7947 26.218 19.4101 27 21.6488 27C23.6132 27 25.251 26.1336 26.4187 24.9285C28.3387 22.9468 29.3907 19.6704 29.7659 18.458C30.8338 15.0087 31.1329 11.8891 31.1677 11.559C31.3665 9.67306 29.7798 8.36067 28.1981 8.36067Z" fill="url(#paint17_radial_4424_454969)"/>
<path d="M28.1981 8.36067C27.9768 8.36067 27.7542 8.38153 27.5359 8.42462C28.5736 9.92305 29.0928 11.4928 29.0928 12.1711C29.0928 14.6371 27.0842 15.2662 26.2137 15.2662C25.5343 15.2662 25.0153 15.1034 24.6039 14.8434C24.6 14.8587 24.5962 14.8741 24.5924 14.8895C24.47 15.379 24.3735 15.9146 24.2063 16.4359C23.8849 17.4381 23.4514 18.5831 22.9884 19.469C22.4894 20.4241 21.9954 20.9829 21.4065 20.9536C20.7368 20.9202 20.1938 20.0558 19.519 17.6128C19.3013 16.825 19.0998 15.9614 18.913 15.1134C18.4498 13.01 17.8811 10.8949 16.9089 9.02569C15.3209 5.97302 12.6119 5 10.4492 5C8.4436 5 6.94516 5.95087 5.76805 7.14892C5.44269 7.48006 5.08742 7.92608 4.73047 8.45035C5.75716 8.69798 6.72798 9.47186 6.88304 10.9386C6.91357 11.2182 7.12786 13.4392 7.84769 16.0131C8.05422 15.3678 8.35537 14.4121 9.05503 12.8689C9.39789 12.1622 9.70734 11.6961 9.98649 11.412C10.2426 11.1514 10.4732 11.0438 10.6807 11.0438C10.9046 11.0438 11.6691 11.249 12.4134 13.8643C13.3364 17.1074 14.0234 22.2687 16.6405 25.0091C17.7947 26.218 19.4101 27 21.6488 27C23.6132 27 25.251 26.1336 26.4187 24.9285C28.3387 22.9468 29.3907 19.6704 29.7659 18.458C30.8338 15.0087 31.1329 11.8891 31.1677 11.559C31.3665 9.67306 29.7798 8.36067 28.1981 8.36067Z" fill="url(#paint18_radial_4424_454969)"/>
<path d="M28.1981 8.36067C27.9768 8.36067 27.7542 8.38153 27.5359 8.42462C28.5736 9.92305 29.0928 11.4928 29.0928 12.1711C29.0928 14.6371 27.0842 15.2662 26.2137 15.2662C25.5343 15.2662 25.0153 15.1034 24.6039 14.8434C24.6 14.8587 24.5962 14.8741 24.5924 14.8895C24.47 15.379 24.3735 15.9146 24.2063 16.4359C23.8849 17.4381 23.4514 18.5831 22.9884 19.469C22.4894 20.4241 21.9954 20.9829 21.4065 20.9536C20.7368 20.9202 20.1938 20.0558 19.519 17.6128C19.3013 16.825 19.0998 15.9614 18.913 15.1134C18.4498 13.01 17.8811 10.8949 16.9089 9.02569C15.3209 5.97302 12.6119 5 10.4492 5C8.4436 5 6.94516 5.95087 5.76805 7.14892C5.44269 7.48006 5.08742 7.92608 4.73047 8.45035C5.75716 8.69798 6.72798 9.47186 6.88304 10.9386C6.91357 11.2182 7.12786 13.4392 7.84769 16.0131C8.05422 15.3678 8.35537 14.4121 9.05503 12.8689C9.39789 12.1622 9.70734 11.6961 9.98649 11.412C10.2426 11.1514 10.4732 11.0438 10.6807 11.0438C10.9046 11.0438 11.6691 11.249 12.4134 13.8643C13.3364 17.1074 14.0234 22.2687 16.6405 25.0091C17.7947 26.218 19.4101 27 21.6488 27C23.6132 27 25.251 26.1336 26.4187 24.9285C28.3387 22.9468 29.3907 19.6704 29.7659 18.458C30.8338 15.0087 31.1329 11.8891 31.1677 11.559C31.3665 9.67306 29.7798 8.36067 28.1981 8.36067Z" fill="url(#paint19_radial_4424_454969)"/>
<path d="M28.1981 8.36067C27.9768 8.36067 27.7542 8.38153 27.5359 8.42462C28.5736 9.92305 29.0928 11.4928 29.0928 12.1711C29.0928 14.6371 27.0842 15.2662 26.2137 15.2662C25.5343 15.2662 25.0153 15.1034 24.6039 14.8434C24.6 14.8587 24.5962 14.8741 24.5924 14.8895C24.47 15.379 24.3735 15.9146 24.2063 16.4359C23.8849 17.4381 23.4514 18.5831 22.9884 19.469C22.4894 20.4241 21.9954 20.9829 21.4065 20.9536C20.7368 20.9202 20.1938 20.0558 19.519 17.6128C19.3013 16.825 19.0998 15.9614 18.913 15.1134C18.4498 13.01 17.8811 10.8949 16.9089 9.02569C15.3209 5.97302 12.6119 5 10.4492 5C8.4436 5 6.94516 5.95087 5.76805 7.14892C5.44269 7.48006 5.08742 7.92608 4.73047 8.45035C5.75716 8.69798 6.72798 9.47186 6.88304 10.9386C6.91357 11.2182 7.12786 13.4392 7.84769 16.0131C8.05422 15.3678 8.35537 14.4121 9.05503 12.8689C9.39789 12.1622 9.70734 11.6961 9.98649 11.412C10.2426 11.1514 10.4732 11.0438 10.6807 11.0438C10.9046 11.0438 11.6691 11.249 12.4134 13.8643C13.3364 17.1074 14.0234 22.2687 16.6405 25.0091C17.7947 26.218 19.4101 27 21.6488 27C23.6132 27 25.251 26.1336 26.4187 24.9285C28.3387 22.9468 29.3907 19.6704 29.7659 18.458C30.8338 15.0087 31.1329 11.8891 31.1677 11.559C31.3665 9.67306 29.7798 8.36067 28.1981 8.36067Z" fill="url(#paint20_radial_4424_454969)"/>
<path d="M28.1981 8.36067C27.9768 8.36067 27.7542 8.38153 27.5359 8.42462C28.5736 9.92305 29.0928 11.4928 29.0928 12.1711C29.0928 14.6371 27.0842 15.2662 26.2137 15.2662C25.5343 15.2662 25.0153 15.1034 24.6039 14.8434C24.6 14.8587 24.5962 14.8741 24.5924 14.8895C24.47 15.379 24.3735 15.9146 24.2063 16.4359C23.8849 17.4381 23.4514 18.5831 22.9884 19.469C22.4894 20.4241 21.9954 20.9829 21.4065 20.9536C20.7368 20.9202 20.1938 20.0558 19.519 17.6128C19.3013 16.825 19.0998 15.9614 18.913 15.1134C18.4498 13.01 17.8811 10.8949 16.9089 9.02569C15.3209 5.97302 12.6119 5 10.4492 5C8.4436 5 6.94516 5.95087 5.76805 7.14892C5.44269 7.48006 5.08742 7.92608 4.73047 8.45035C5.75716 8.69798 6.72798 9.47186 6.88304 10.9386C6.91357 11.2182 7.12786 13.4392 7.84769 16.0131C8.05422 15.3678 8.35537 14.4121 9.05503 12.8689C9.39789 12.1622 9.70734 11.6961 9.98649 11.412C10.2426 11.1514 10.4732 11.0438 10.6807 11.0438C10.9046 11.0438 11.6691 11.249 12.4134 13.8643C13.3364 17.1074 14.0234 22.2687 16.6405 25.0091C17.7947 26.218 19.4101 27 21.6488 27C23.6132 27 25.251 26.1336 26.4187 24.9285C28.3387 22.9468 29.3907 19.6704 29.7659 18.458C30.8338 15.0087 31.1329 11.8891 31.1677 11.559C31.3665 9.67306 29.7798 8.36067 28.1981 8.36067Z" fill="url(#paint21_radial_4424_454969)"/>
<path d="M28.1981 8.36067C27.9768 8.36067 27.7542 8.38153 27.5359 8.42462C28.5736 9.92305 29.0928 11.4928 29.0928 12.1711C29.0928 14.6371 27.0842 15.2662 26.2137 15.2662C25.5343 15.2662 25.0153 15.1034 24.6039 14.8434C24.6 14.8587 24.5962 14.8741 24.5924 14.8895C24.47 15.379 24.3735 15.9146 24.2063 16.4359C23.8849 17.4381 23.4514 18.5831 22.9884 19.469C22.4894 20.4241 21.9954 20.9829 21.4065 20.9536C20.7368 20.9202 20.1938 20.0558 19.519 17.6128C19.3013 16.825 19.0998 15.9614 18.913 15.1134C18.4498 13.01 17.8811 10.8949 16.9089 9.02569C15.3209 5.97302 12.6119 5 10.4492 5C8.4436 5 6.94516 5.95087 5.76805 7.14892C5.44269 7.48006 5.08742 7.92608 4.73047 8.45035C5.75716 8.69798 6.72798 9.47186 6.88304 10.9386C6.91357 11.2182 7.12786 13.4392 7.84769 16.0131C8.05422 15.3678 8.35537 14.4121 9.05503 12.8689C9.39789 12.1622 9.70734 11.6961 9.98649 11.412C10.2426 11.1514 10.4732 11.0438 10.6807 11.0438C10.9046 11.0438 11.6691 11.249 12.4134 13.8643C13.3364 17.1074 14.0234 22.2687 16.6405 25.0091C17.7947 26.218 19.4101 27 21.6488 27C23.6132 27 25.251 26.1336 26.4187 24.9285C28.3387 22.9468 29.3907 19.6704 29.7659 18.458C30.8338 15.0087 31.1329 11.8891 31.1677 11.559C31.3665 9.67306 29.7798 8.36067 28.1981 8.36067Z" fill="url(#paint22_radial_4424_454969)"/>
<path d="M28.1981 8.36067C27.9768 8.36067 27.7542 8.38153 27.5359 8.42462C28.5736 9.92305 29.0928 11.4928 29.0928 12.1711C29.0928 14.6371 27.0842 15.2662 26.2137 15.2662C25.5343 15.2662 25.0153 15.1034 24.6039 14.8434C24.6 14.8587 24.5962 14.8741 24.5924 14.8895C24.47 15.379 24.3735 15.9146 24.2063 16.4359C23.8849 17.4381 23.4514 18.5831 22.9884 19.469C22.4894 20.4241 21.9954 20.9829 21.4065 20.9536C20.7368 20.9202 20.1938 20.0558 19.519 17.6128C19.3013 16.825 19.0998 15.9614 18.913 15.1134C18.4498 13.01 17.8811 10.8949 16.9089 9.02569C15.3209 5.97302 12.6119 5 10.4492 5C8.4436 5 6.94516 5.95087 5.76805 7.14892C5.44269 7.48006 5.08742 7.92608 4.73047 8.45035C5.75716 8.69798 6.72798 9.47186 6.88304 10.9386C6.91357 11.2182 7.12786 13.4392 7.84769 16.0131C8.05422 15.3678 8.35537 14.4121 9.05503 12.8689C9.39789 12.1622 9.70734 11.6961 9.98649 11.412C10.2426 11.1514 10.4732 11.0438 10.6807 11.0438C10.9046 11.0438 11.6691 11.249 12.4134 13.8643C13.3364 17.1074 14.0234 22.2687 16.6405 25.0091C17.7947 26.218 19.4101 27 21.6488 27C23.6132 27 25.251 26.1336 26.4187 24.9285C28.3387 22.9468 29.3907 19.6704 29.7659 18.458C30.8338 15.0087 31.1329 11.8891 31.1677 11.559C31.3665 9.67306 29.7798 8.36067 28.1981 8.36067Z" fill="url(#paint23_radial_4424_454969)"/>
<path d="M28.1981 8.36067C27.9768 8.36067 27.7542 8.38153 27.5359 8.42462C28.5736 9.92305 29.0928 11.4928 29.0928 12.1711C29.0928 14.6371 27.0842 15.2662 26.2137 15.2662C25.5343 15.2662 25.0153 15.1034 24.6039 14.8434C24.6 14.8587 24.5962 14.8741 24.5924 14.8895C24.47 15.379 24.3735 15.9146 24.2063 16.4359C23.8849 17.4381 23.4514 18.5831 22.9884 19.469C22.4894 20.4241 21.9954 20.9829 21.4065 20.9536C20.7368 20.9202 20.1938 20.0558 19.519 17.6128C19.3013 16.825 19.0998 15.9614 18.913 15.1134C18.4498 13.01 17.8811 10.8949 16.9089 9.02569C15.3209 5.97302 12.6119 5 10.4492 5C8.4436 5 6.94516 5.95087 5.76805 7.14892C5.44269 7.48006 5.08742 7.92608 4.73047 8.45035C5.75716 8.69798 6.72798 9.47186 6.88304 10.9386C6.91357 11.2182 7.12786 13.4392 7.84769 16.0131C8.05422 15.3678 8.35537 14.4121 9.05503 12.8689C9.39789 12.1622 9.70734 11.6961 9.98649 11.412C10.2426 11.1514 10.4732 11.0438 10.6807 11.0438C10.9046 11.0438 11.6691 11.249 12.4134 13.8643C13.3364 17.1074 14.0234 22.2687 16.6405 25.0091C17.7947 26.218 19.4101 27 21.6488 27C23.6132 27 25.251 26.1336 26.4187 24.9285C28.3387 22.9468 29.3907 19.6704 29.7659 18.458C30.8338 15.0087 31.1329 11.8891 31.1677 11.559C31.3665 9.67306 29.7798 8.36067 28.1981 8.36067Z" fill="url(#paint24_radial_4424_454969)"/>
<path d="M10.3653 26.9128C4.77632 26.9128 2.87411 19.8349 2.44788 18.458C1.37749 15.0004 1.0521 11.8859 1.01765 11.559C0.818893 9.67306 2.32944 8.36067 3.98729 8.36067C5.24258 8.36067 6.69945 9.11309 6.89243 10.9387C6.92593 11.2458 7.1811 13.8941 8.08393 16.7797C9.02605 19.7914 10.0256 20.9495 10.7453 20.9495C11.9077 20.9495 12.6168 17.96 13.2438 15.1134C13.7057 13.0162 14.205 10.9029 15.1908 9.0257C16.9058 5.75995 19.4973 5 21.7361 5C26.6452 5 29.1022 10.6956 29.1022 12.1712C29.1022 14.6373 27.0937 15.2663 26.2231 15.2663C24.319 15.2663 23.6736 13.9887 23.1303 12.8689C22.6416 11.8615 22.1312 11.0238 21.4713 11.0238C21.2545 11.0238 21.0536 11.1338 20.8678 11.323C19.2277 12.9922 18.6777 21.7249 15.3984 25.0626C13.5804 26.9128 11.6023 26.9128 10.3653 26.9128Z" fill="url(#paint25_linear_4424_454969)"/>
<path d="M10.3653 26.9128C4.77632 26.9128 2.87411 19.8349 2.44788 18.458C1.37749 15.0004 1.0521 11.8859 1.01765 11.559C0.818893 9.67306 2.32944 8.36067 3.98729 8.36067C5.24258 8.36067 6.69945 9.11309 6.89243 10.9387C6.92593 11.2458 7.1811 13.8941 8.08393 16.7797C9.02605 19.7914 10.0256 20.9495 10.7453 20.9495C11.9077 20.9495 12.6168 17.96 13.2438 15.1134C13.7057 13.0162 14.205 10.9029 15.1908 9.0257C16.9058 5.75995 19.4973 5 21.7361 5C26.6452 5 29.1022 10.6956 29.1022 12.1712C29.1022 14.6373 27.0937 15.2663 26.2231 15.2663C24.319 15.2663 23.6736 13.9887 23.1303 12.8689C22.6416 11.8615 22.1312 11.0238 21.4713 11.0238C21.2545 11.0238 21.0536 11.1338 20.8678 11.323C19.2277 12.9922 18.6777 21.7249 15.3984 25.0626C13.5804 26.9128 11.6023 26.9128 10.3653 26.9128Z" fill="url(#paint26_radial_4424_454969)"/>
<path d="M10.3653 26.9128C4.77632 26.9128 2.87411 19.8349 2.44788 18.458C1.37749 15.0004 1.0521 11.8859 1.01765 11.559C0.818893 9.67306 2.32944 8.36067 3.98729 8.36067C5.24258 8.36067 6.69945 9.11309 6.89243 10.9387C6.92593 11.2458 7.1811 13.8941 8.08393 16.7797C9.02605 19.7914 10.0256 20.9495 10.7453 20.9495C11.9077 20.9495 12.6168 17.96 13.2438 15.1134C13.7057 13.0162 14.205 10.9029 15.1908 9.0257C16.9058 5.75995 19.4973 5 21.7361 5C26.6452 5 29.1022 10.6956 29.1022 12.1712C29.1022 14.6373 27.0937 15.2663 26.2231 15.2663C24.319 15.2663 23.6736 13.9887 23.1303 12.8689C22.6416 11.8615 22.1312 11.0238 21.4713 11.0238C21.2545 11.0238 21.0536 11.1338 20.8678 11.323C19.2277 12.9922 18.6777 21.7249 15.3984 25.0626C13.5804 26.9128 11.6023 26.9128 10.3653 26.9128Z" fill="url(#paint27_linear_4424_454969)"/>
<path d="M10.3653 26.9128C4.77632 26.9128 2.87411 19.8349 2.44788 18.458C1.37749 15.0004 1.0521 11.8859 1.01765 11.559C0.818893 9.67306 2.32944 8.36067 3.98729 8.36067C5.24258 8.36067 6.69945 9.11309 6.89243 10.9387C6.92593 11.2458 7.1811 13.8941 8.08393 16.7797C9.02605 19.7914 10.0256 20.9495 10.7453 20.9495C11.9077 20.9495 12.6168 17.96 13.2438 15.1134C13.7057 13.0162 14.205 10.9029 15.1908 9.0257C16.9058 5.75995 19.4973 5 21.7361 5C26.6452 5 29.1022 10.6956 29.1022 12.1712C29.1022 14.6373 27.0937 15.2663 26.2231 15.2663C24.319 15.2663 23.6736 13.9887 23.1303 12.8689C22.6416 11.8615 22.1312 11.0238 21.4713 11.0238C21.2545 11.0238 21.0536 11.1338 20.8678 11.323C19.2277 12.9922 18.6777 21.7249 15.3984 25.0626C13.5804 26.9128 11.6023 26.9128 10.3653 26.9128Z" fill="url(#paint28_linear_4424_454969)"/>
<path d="M10.3653 26.9128C4.77632 26.9128 2.87411 19.8349 2.44788 18.458C1.37749 15.0004 1.0521 11.8859 1.01765 11.559C0.818893 9.67306 2.32944 8.36067 3.98729 8.36067C5.24258 8.36067 6.69945 9.11309 6.89243 10.9387C6.92593 11.2458 7.1811 13.8941 8.08393 16.7797C9.02605 19.7914 10.0256 20.9495 10.7453 20.9495C11.9077 20.9495 12.6168 17.96 13.2438 15.1134C13.7057 13.0162 14.205 10.9029 15.1908 9.0257C16.9058 5.75995 19.4973 5 21.7361 5C26.6452 5 29.1022 10.6956 29.1022 12.1712C29.1022 14.6373 27.0937 15.2663 26.2231 15.2663C24.319 15.2663 23.6736 13.9887 23.1303 12.8689C22.6416 11.8615 22.1312 11.0238 21.4713 11.0238C21.2545 11.0238 21.0536 11.1338 20.8678 11.323C19.2277 12.9922 18.6777 21.7249 15.3984 25.0626C13.5804 26.9128 11.6023 26.9128 10.3653 26.9128Z" fill="url(#paint29_radial_4424_454969)"/>
</g>
</g>
<defs>
<linearGradient id="paint0_linear_4424_454969" x1="26.0442" y1="11.4293" x2="6.29546" y2="17.8969" gradientUnits="userSpaceOnUse">
<stop stop-color="#5CEE64"/>
<stop offset="1" stop-color="#00BBFF"/>
</linearGradient>
<radialGradient id="paint1_radial_4424_454969" cx="0" cy="0" r="1" gradientUnits="userSpaceOnUse" gradientTransform="translate(12.4886 16.6857) rotate(-120.825) scale(12.9471 10.8619)">
<stop stop-color="#007383"/>
<stop offset="0.407867" stop-color="#00717E" stop-opacity="0.75"/>
<stop offset="0.874482" stop-color="#007281" stop-opacity="0"/>
</radialGradient>
<radialGradient id="paint2_radial_4424_454969" cx="0" cy="0" r="1" gradientUnits="userSpaceOnUse" gradientTransform="translate(20.9867 14.2757) rotate(-126.696) scale(10.5575 6.93413)">
<stop stop-color="#218970"/>
<stop offset="0.459527" stop-color="#267E6A"/>
<stop offset="1" stop-color="#026C51" stop-opacity="0"/>
</radialGradient>
<radialGradient id="paint3_radial_4424_454969" cx="0" cy="0" r="1" gradientUnits="userSpaceOnUse" gradientTransform="translate(11.7438 17.2976) rotate(-107.446) scale(8.6017 4.47619)">
<stop stop-color="#178697"/>
<stop offset="0.407867" stop-color="#17838F" stop-opacity="0.79"/>
<stop offset="0.874482" stop-color="#007281" stop-opacity="0"/>
</radialGradient>
<radialGradient id="paint4_radial_4424_454969" cx="0" cy="0" r="1" gradientUnits="userSpaceOnUse" gradientTransform="translate(15.5632 17.2517) rotate(-120.825) scale(21.8385 6.73205)">
<stop stop-color="#25342F" stop-opacity="0.3"/>
<stop offset="1" stop-color="#25342F" stop-opacity="0"/>
</radialGradient>
<radialGradient id="paint5_radial_4424_454969" cx="0" cy="0" r="1" gradientUnits="userSpaceOnUse" gradientTransform="translate(19.4548 14.5153) rotate(85.1046) scale(8.22792 4.66046)">
<stop stop-color="#056D4F"/>
<stop offset="0.232593" stop-color="#056C4E" stop-opacity="0.75"/>
<stop offset="0.598902" stop-color="#056C4E" stop-opacity="0.300824"/>
<stop offset="0.874482" stop-color="#056C4F" stop-opacity="0"/>
</radialGradient>
<radialGradient id="paint6_radial_4424_454969" cx="0" cy="0" r="1" gradientUnits="userSpaceOnUse" gradientTransform="translate(19.8183 1.20844) rotate(57.1132) scale(9.66828 5.06814)">
<stop stop-color="#22B67B"/>
<stop offset="0.407867" stop-color="#24BE82"/>
<stop offset="1" stop-color="#24BE82" stop-opacity="0.07"/>
</radialGradient>
<linearGradient id="paint7_linear_4424_454969" x1="-6.42641" y1="15.7652" x2="7.5653" y2="15.8802" gradientUnits="userSpaceOnUse">
<stop stop-color="#09F8FF"/>
<stop offset="1" stop-color="#0BF7F9" stop-opacity="0"/>
</linearGradient>
<radialGradient id="paint8_radial_4424_454969" cx="0" cy="0" r="1" gradientUnits="userSpaceOnUse" gradientTransform="translate(-3.42056 3.14551) rotate(49.6893) scale(12.6251 12.5908)">
<stop stop-color="#09F8FF"/>
<stop offset="1" stop-color="#0BF7F9" stop-opacity="0"/>
</radialGradient>
<radialGradient id="paint9_radial_4424_454969" cx="0" cy="0" r="1" gradientUnits="userSpaceOnUse" gradientTransform="translate(6.68604 -3.21453) rotate(48.0508) scale(25.6053 25.5612)">
<stop stop-color="#00B8FF"/>
<stop offset="0.745423" stop-color="#00B9FC" stop-opacity="0"/>
</radialGradient>
<radialGradient id="paint10_radial_4424_454969" cx="0" cy="0" r="1" gradientUnits="userSpaceOnUse" gradientTransform="translate(8.03917 16.0023) rotate(-107.446) scale(12.3481 8.5462)">
<stop stop-color="#00BCFF" stop-opacity="0.76"/>
<stop offset="0.57273" stop-color="#00BAFC" stop-opacity="0"/>
</radialGradient>
<radialGradient id="paint11_radial_4424_454969" cx="0" cy="0" r="1" gradientUnits="userSpaceOnUse" gradientTransform="translate(26.7882 11.3119) rotate(-129.512) scale(8.72806 6.10891)">
<stop stop-color="#5FEC50"/>
<stop offset="1" stop-color="#3CC08E" stop-opacity="0"/>
</radialGradient>
<radialGradient id="paint12_radial_4424_454969" cx="0" cy="0" r="1" gradientUnits="userSpaceOnUse" gradientTransform="translate(25.5399 16.9367) rotate(-79.109) scale(2.64374 1.8262)">
<stop stop-color="#28855B"/>
<stop offset="1" stop-color="#14795C" stop-opacity="0"/>
</radialGradient>
<radialGradient id="paint13_radial_4424_454969" cx="0" cy="0" r="1" gradientUnits="userSpaceOnUse" gradientTransform="translate(25.4126 16.7421) rotate(-77.8959) scale(2.17942 3.04202)">
<stop stop-color="#28855B"/>
<stop offset="1" stop-color="#14795C" stop-opacity="0"/>
</radialGradient>
<radialGradient id="paint14_radial_4424_454969" cx="0" cy="0" r="1" gradientUnits="userSpaceOnUse" gradientTransform="translate(28.0056 12.8156) rotate(-132.751) scale(7.22556 5.07549)">
<stop stop-color="#5FF05B"/>
<stop offset="0.813285" stop-color="#5DE955" stop-opacity="0"/>
</radialGradient>
<radialGradient id="paint15_radial_4424_454969" cx="0" cy="0" r="1" gradientUnits="userSpaceOnUse" gradientTransform="translate(25.7485 14.8922) rotate(37.4938) scale(6.42442 8.93299)">
<stop stop-color="#123AA8"/>
<stop offset="0.966119" stop-color="#123AA8" stop-opacity="0"/>
</radialGradient>
<radialGradient id="paint16_radial_4424_454969" cx="0" cy="0" r="1" gradientUnits="userSpaceOnUse" gradientTransform="translate(24.1511 15.617) rotate(8.49757) scale(7.5766 11.3241)">
<stop stop-color="#123AA8"/>
<stop offset="0.592487" stop-color="#123AA8" stop-opacity="0"/>
</radialGradient>
<radialGradient id="paint17_radial_4424_454969" cx="0" cy="0" r="1" gradientUnits="userSpaceOnUse" gradientTransform="translate(24.7658 16.5581) rotate(24.6929) scale(6.47339 11.5452)">
<stop stop-color="#123AA8"/>
<stop offset="0.756788" stop-color="#123AA8" stop-opacity="0"/>
</radialGradient>
<radialGradient id="paint18_radial_4424_454969" cx="0" cy="0" r="1" gradientUnits="userSpaceOnUse" gradientTransform="translate(24.0058 16.9421) rotate(95.7949) scale(11.6501 6.3758)">
<stop stop-color="#123AA8"/>
<stop offset="0.592487" stop-color="#123AA8" stop-opacity="0"/>
<stop offset="1" stop-color="#123AA8" stop-opacity="0"/>
</radialGradient>
<radialGradient id="paint19_radial_4424_454969" cx="0" cy="0" r="1" gradientUnits="userSpaceOnUse" gradientTransform="translate(25.7485 11.7986) rotate(93.6621) scale(14.0206 4.99684)">
<stop stop-color="#123AA8"/>
<stop offset="0.884611" stop-color="#123AA8" stop-opacity="0"/>
</radialGradient>
<radialGradient id="paint20_radial_4424_454969" cx="0" cy="0" r="1" gradientUnits="userSpaceOnUse" gradientTransform="translate(9.8809 14.7138) rotate(84.8366) scale(7.43992 3.93629)">
<stop stop-color="#123AA8"/>
<stop offset="0.884611" stop-color="#123AA8" stop-opacity="0"/>
</radialGradient>
<radialGradient id="paint21_radial_4424_454969" cx="0" cy="0" r="1" gradientUnits="userSpaceOnUse" gradientTransform="translate(9.87558 14.9139) rotate(87.2542) scale(7.76478 6.40179)">
<stop stop-color="#123AA8"/>
<stop offset="0.884611" stop-color="#123AA8" stop-opacity="0"/>
</radialGradient>
<radialGradient id="paint22_radial_4424_454969" cx="0" cy="0" r="1" gradientUnits="userSpaceOnUse" gradientTransform="translate(11.6398 22.21) rotate(-23.2009) scale(8.64912 16.9221)">
<stop stop-color="#123AA8"/>
<stop offset="0.708977" stop-color="#123AA8" stop-opacity="0"/>
</radialGradient>
<radialGradient id="paint23_radial_4424_454969" cx="0" cy="0" r="1" gradientUnits="userSpaceOnUse" gradientTransform="translate(8.56304 13.0155) rotate(-159.501) scale(5.72994 9.82136)">
<stop stop-color="#1A3DA0"/>
<stop offset="0.708977" stop-color="#123AA8" stop-opacity="0"/>
</radialGradient>
<radialGradient id="paint24_radial_4424_454969" cx="0" cy="0" r="1" gradientUnits="userSpaceOnUse" gradientTransform="translate(3.52005 14.968) rotate(16.7707) scale(10.928 11.0444)">
<stop stop-color="#1E3882"/>
<stop offset="0.761404" stop-color="#123AA8" stop-opacity="0"/>
</radialGradient>
<linearGradient id="paint25_linear_4424_454969" x1="0.0913173" y1="8.916" x2="10.8671" y2="15.7843" gradientUnits="userSpaceOnUse">
<stop offset="0.229329" stop-color="#1DC4FF"/>
<stop offset="1" stop-color="#1CC1FF" stop-opacity="0"/>
</linearGradient>
<radialGradient id="paint26_radial_4424_454969" cx="0" cy="0" r="1" gradientUnits="userSpaceOnUse" gradientTransform="translate(-3.42121 3.145) rotate(49.6893) scale(12.6251 12.5908)">
<stop stop-color="#09F8FF"/>
<stop offset="1" stop-color="#0BF7F9" stop-opacity="0"/>
</radialGradient>
<linearGradient id="paint27_linear_4424_454969" x1="0.686474" y1="9.26754" x2="3.71045" y2="12.0051" gradientUnits="userSpaceOnUse">
<stop stop-color="#26FBFF"/>
<stop offset="0.637346" stop-color="#0BF7F9" stop-opacity="0"/>
</linearGradient>
<linearGradient id="paint28_linear_4424_454969" x1="-0.115932" y1="11.3661" x2="4.06161" y2="11.6637" gradientUnits="userSpaceOnUse">
<stop stop-color="#26FBFF"/>
<stop offset="0.637346" stop-color="#0BF7F9" stop-opacity="0"/>
</linearGradient>
<radialGradient id="paint29_radial_4424_454969" cx="0" cy="0" r="1" gradientUnits="userSpaceOnUse" gradientTransform="translate(8.03879 16.0024) rotate(-107.446) scale(12.3481 8.5462)">
<stop stop-color="#00BCFF" stop-opacity="0.76"/>
<stop offset="0.57273" stop-color="#00BAFC" stop-opacity="0"/>
</radialGradient>
<clipPath id="clip0_4424_454969">
<rect width="30.1834" height="22" fill="white" transform="translate(1 5)"/>
</clipPath>
</defs>
</svg>
