<svg width="52" height="52" viewBox="0 0 52 52" fill="none" xmlns="http://www.w3.org/2000/svg">
<path d="M47.0898 7.29395V28.1104L47.0752 28.8379C46.4781 43.9742 27.3811 50.5508 26.5557 50.8281L26.0449 51L25.5332 50.8281C24.7025 50.549 5.60993 43.9702 5.01367 28.8369L5 28.1104V7.29395L26.0449 2L47.0898 7.29395ZM6.02051 8.08984V28.0908L6.0332 28.8125C6.31919 35.9123 10.9412 41.085 15.7832 44.5771C20.6132 48.0606 25.4829 49.7351 25.8584 49.8613L26.0439 49.9238L26.2305 49.8613L26.5732 49.7422C27.8218 49.2898 32.0782 47.6259 36.3047 44.5781C41.1467 41.0864 45.7683 35.914 46.0547 28.8135L46.0684 28.1113V8.08984L26.0439 3.05273L6.02051 8.08984ZM45.0479 8.88574V28.1113L45.0332 28.7871C44.7596 35.4215 40.4388 40.3367 35.707 43.749C31.6007 46.7102 27.4549 48.3358 26.2354 48.7783L26.043 48.8447C25.1601 48.5346 20.7494 46.8987 16.3809 43.748C11.649 40.3352 7.32687 35.4198 7.05371 28.7861L7.04102 28.0732V8.88574L26.0439 4.10449L45.0479 8.88574ZM26.3438 41.2539C26.1153 41.2534 25.8863 41.3051 25.6582 41.4092C25.6471 41.4144 25.6372 41.423 25.6309 41.4336C25.6246 41.4445 25.6212 41.4581 25.6221 41.4707C25.6445 41.789 25.6916 42.2634 25.9062 42.5645C26.0294 42.7369 26.1795 42.82 26.3262 42.8301C26.5706 42.8476 26.8078 42.6588 26.9023 42.3271C26.9959 41.9969 27.0511 41.7123 27.0684 41.4756C27.0693 41.4629 27.0668 41.4496 27.0605 41.4385C27.0539 41.4272 27.0431 41.4177 27.0312 41.4121C26.8019 41.3068 26.5726 41.2542 26.3438 41.2539ZM24.2832 40.4053C23.9825 40.4501 23.6932 40.4906 23.416 40.5273C23.3087 40.5418 23.2481 40.6041 23.2354 40.7119C23.2219 40.8361 23.2691 40.9313 23.376 40.9961C23.4289 41.028 23.4896 41.0446 23.5508 41.0469C23.5714 41.0478 23.5925 41.0486 23.6133 41.0459L25.126 40.8496C25.1961 40.841 25.2043 40.8139 25.1504 40.7686C24.9355 40.5893 24.691 40.4069 24.4072 40.3984C24.3669 40.3971 24.3251 40.399 24.2832 40.4053ZM24.7715 37C24.3528 37.375 24.0846 37.8561 24.1582 38.5107C24.3797 40.4866 27.6681 40.954 29.1602 41.0205C29.3881 41.0301 29.4888 40.9176 29.4619 40.6846C29.4574 40.6457 29.4398 40.6088 29.4121 40.5811C29.3843 40.5534 29.3475 40.5358 29.3086 40.5312C28.047 40.3855 26.7849 40.1907 25.6709 39.542C24.6537 38.9493 24.6523 37.7472 25.7168 37.2227C25.8693 37.1476 26.047 37.0743 26.2383 37H24.7715ZM27.8164 37.0576L27.2334 37.2881C27.2259 37.2911 27.2189 37.2964 27.2139 37.3027C27.2089 37.3091 27.2053 37.3172 27.2041 37.3252C27.203 37.3331 27.2042 37.3421 27.207 37.3496C27.21 37.3569 27.2146 37.3641 27.2207 37.3691C27.7212 37.7717 27.885 38.244 27.7119 38.7852C27.6263 39.0531 27.3838 39.264 27.1924 39.4795C27.1891 39.4835 27.1867 39.4891 27.1855 39.4941C27.1846 39.4994 27.1849 39.5057 27.1865 39.5107C27.1882 39.5158 27.1914 39.5209 27.1953 39.5244C27.1993 39.5279 27.2047 39.5303 27.21 39.5312L27.7432 39.6406C27.8066 39.6535 27.8655 39.6538 27.9189 39.6416C28.0077 39.6225 28.083 39.5691 28.1445 39.4814C28.7162 38.6654 28.6911 37.8789 28.0693 37.1221C28.0178 37.0593 27.9574 37.0318 27.8877 37.04C27.8651 37.0422 27.8409 37.0479 27.8164 37.0576ZM26.3408 37.6816C26.1884 37.6838 26.0429 37.7472 25.9365 37.8564L25.8027 37.9932C25.7503 38.0471 25.7086 38.1118 25.6807 38.1816C25.6798 38.1836 25.6785 38.1865 25.6777 38.1885C25.5959 38.3976 25.6415 38.6451 25.8125 38.8115L25.9551 38.9502C26.1829 39.1712 26.547 39.1658 26.7686 38.9385L26.9023 38.8008C26.9574 38.7441 26.9993 38.6787 27.0264 38.6094C27.0542 38.5394 27.0674 38.463 27.0664 38.3877C27.0653 38.3123 27.0493 38.2372 27.0195 38.168C26.9897 38.0989 26.9465 38.0359 26.8926 37.9834L26.75 37.8447C26.6406 37.7386 26.4933 37.6795 26.3408 37.6816ZM16.4424 29.9092V35H17.5186V32.8975H19.7041V35H20.7773V29.9092H19.7041V32.0098H17.5186V29.9092H16.4424ZM21.5254 29.9092V35H22.6016V29.9092H21.5254ZM23.3467 29.9092V35H24.4238V33.3496H25.3281C25.7192 33.3496 26.0521 33.2769 26.3271 33.1328C26.6038 32.9887 26.8151 32.7877 26.9609 32.5293C27.1068 32.2708 27.1797 31.9719 27.1797 31.6338C27.1796 31.2959 27.108 30.9977 26.9639 30.7393C26.8214 30.4791 26.6145 30.2757 26.3428 30.1299C26.071 29.9824 25.7416 29.9092 25.3555 29.9092H23.3467ZM28.6328 29.9092L26.875 35H28.0293L28.4072 33.8389H30.2441L30.6211 35H31.7754L30.0195 29.9092H28.6328ZM33.7295 29.9092L31.9717 35H33.125L33.5029 33.8389H35.3408L35.7178 35H36.8711L35.1162 29.9092H33.7295ZM34.4424 31.0723L35.0684 32.999H33.7764L34.4033 31.0723H34.4424ZM29.3467 31.0723L29.9717 32.999H28.6797L29.3066 31.0723H29.3467ZM25.1494 30.7891C25.3579 30.7891 25.5302 30.8244 25.666 30.8955C25.8018 30.9651 25.9034 31.0639 25.9697 31.1914C26.0376 31.3172 26.0712 31.4649 26.0713 31.6338C26.0713 31.8011 26.0376 31.9499 25.9697 32.0791C25.9034 32.2067 25.8019 32.307 25.666 32.3799C25.5318 32.4511 25.3613 32.4873 25.1543 32.4873H24.4238V30.7891H25.1494ZM26.9785 25.9346C26.5305 25.8691 26.0845 25.8777 25.6416 25.96C25.6307 25.962 25.6204 25.9681 25.6133 25.9766C25.6063 25.9851 25.6026 25.9968 25.6025 26.0078V27.7773C25.6027 27.7927 25.6063 27.8086 25.6133 27.8223C25.6204 27.836 25.631 27.8484 25.6436 27.8574C26.1094 28.1874 26.5739 28.1891 27.0352 27.8633C27.0458 27.8557 27.0545 27.8447 27.0605 27.833C27.0665 27.8212 27.0702 27.8073 27.0703 27.7939L27.0664 26.0361C27.0663 26.0118 27.058 25.9872 27.042 25.9688C27.0258 25.9504 27.0028 25.9381 26.9785 25.9346ZM29.2393 19.6729C28.4973 19.7437 27.8367 20.2836 27.627 20.9951C27.3897 21.8028 28.286 22.1891 28.9355 22.1289C29.5369 22.0731 30.0697 21.8816 30.5332 21.5547C30.7424 21.4076 30.8967 21.3219 30.9951 21.2988C31.4713 21.1885 32.0663 21.4038 32.0615 21.9736C32.0467 23.4449 26.806 23.8645 25.7822 23.9775C24.8141 24.0845 23.6988 24.4038 22.9102 24.9902C21.6554 25.9239 21.8803 27.1019 22.6201 28H24.4775C24.0072 27.7017 23.5568 27.3108 23.4492 26.8896C23.1373 25.6642 25.3878 25.3233 26.1484 25.2637C28.0176 25.1196 33.5333 24.7979 33.7617 22.167C33.8347 21.324 33.5509 20.6768 32.9102 20.2266C32.2095 19.735 31.4133 19.7076 30.585 19.7412C30.1348 19.7592 29.6989 19.6281 29.2393 19.6729ZM28.5215 25.6846C28.488 25.6903 28.486 25.7004 28.5166 25.7158C29.0663 25.985 29.5294 26.3987 29.1982 27.0654C29.0109 27.442 28.6702 27.7452 28.2588 28H30.0957C30.6997 27.3062 30.9453 26.4427 30.3008 25.4736C30.2857 25.4512 30.264 25.4337 30.2393 25.4229C30.2145 25.4121 30.1867 25.4078 30.1602 25.4121L28.5215 25.6846ZM23.4727 19.6611C23.0568 19.5879 22.4629 19.7958 21.9668 19.7441C20.8425 19.6269 19.6305 19.965 19.123 21.0439C18.8679 21.589 18.8454 22.3325 19.1377 22.8525C19.7238 23.8976 21.1292 24.3985 22.168 24.665C22.1826 24.6687 22.1983 24.6699 22.2129 24.667C22.2274 24.664 22.2413 24.6573 22.2529 24.6484C22.8062 24.2201 23.4176 23.9024 24.0859 23.6953C24.1377 23.6792 24.1369 23.6644 24.084 23.6523C23.2068 23.4522 20.6174 22.9982 20.6396 21.9326C20.6528 21.3137 21.3009 21.2346 21.7686 21.2939C21.7961 21.2973 21.8224 21.3092 21.8438 21.3271C22.4242 21.8147 23.0971 22.087 23.8604 22.1445C24.642 22.2038 25.3939 21.6085 24.9844 20.7607C24.6915 20.1537 24.1875 19.7871 23.4727 19.6611ZM27.3301 10.4131C25.9981 9.74864 24.7195 10.5304 24.4404 11.5186C24.2491 12.1939 24.5246 12.9671 25.5693 13.4404C25.5803 13.4455 25.5901 13.4537 25.5967 13.4639C25.603 13.4739 25.6064 13.4861 25.6064 13.498V23.1396C25.6066 23.1526 25.6118 23.1659 25.6201 23.1758C25.6286 23.1856 25.6406 23.1924 25.6533 23.1943C26.1123 23.2622 26.5725 23.2646 27.0332 23.2031C27.0443 23.2015 27.0551 23.1958 27.0625 23.1875C27.0696 23.1792 27.0739 23.1681 27.0742 23.1572V13.5205C27.0743 13.5084 27.0778 13.4957 27.084 13.4854C27.0903 13.475 27.0997 13.4664 27.1104 13.4609C27.3707 13.3277 27.5577 13.2138 27.6699 13.1201C28.1489 12.7205 28.3384 12.1811 28.2715 11.6738C28.2049 11.1655 27.8805 10.6878 27.3301 10.4131ZM22.7715 13.3105C22.5682 13.3262 22.2866 13.3801 21.9277 13.4736C19.4886 14.1075 17.0349 14.6174 14.5576 14.6045C13.4318 14.5985 12.3006 14.4851 11.1641 14.2256C11.1538 14.2232 11.1455 14.2216 11.1396 14.2217H11.1377C11.1202 14.2218 11.1223 14.2336 11.1445 14.2559C13.4601 16.5539 16.2576 17.7919 19.5361 17.9697C19.5487 17.9705 19.5616 17.9747 19.5723 17.9814C19.5827 17.9882 19.5916 17.9979 19.5977 18.0088C20.0307 18.7877 21.8665 18.9465 23.335 18.9424C24.0033 18.9406 24.5961 18.9056 24.9463 18.8789C24.9609 18.8778 24.9753 18.871 24.9854 18.8604C24.9952 18.8496 25.0009 18.8349 25.001 18.8203C25.0027 17.7025 25.0027 16.5897 25.001 15.4834C24.999 14.5699 23.8442 13.3681 22.9512 13.3076H22.9482L22.7715 13.3105ZM29.7715 13.2969C29.5983 13.3016 29.4308 13.336 29.2705 13.4053C28.6139 13.6893 27.6956 14.688 27.6953 15.416C27.6959 16.5568 27.6963 17.697 27.6963 18.835C27.6964 18.8436 27.6993 18.8529 27.7051 18.8594C27.711 18.8657 27.7199 18.8693 27.7285 18.8701C28.0962 18.8979 28.6975 18.9351 29.3691 18.9385C30.8458 18.9461 32.6667 18.7876 33.1084 17.9873C33.1144 17.9762 33.1239 17.9657 33.1348 17.959C33.1456 17.9524 33.159 17.9488 33.1719 17.9482C36.3336 17.842 39.2784 16.5244 41.5117 14.292C41.5552 14.2485 41.559 14.2263 41.5234 14.2266C41.5124 14.2264 41.4969 14.229 41.4775 14.2334C40.2821 14.5015 39.1137 14.6081 37.957 14.6006C35.4116 14.5836 32.9195 14.0105 30.3047 13.3623C30.122 13.3167 29.9437 13.292 29.7715 13.2969Z" fill="url(#paint0_radial_8228_117015)"/>
<defs>
<radialGradient id="paint0_radial_8228_117015" cx="0" cy="0" r="1" gradientUnits="userSpaceOnUse" gradientTransform="translate(25.9461 2) rotate(90) scale(49 35.4888)">
<stop offset="0.461367" stop-color="#2E3038"/>
<stop offset="1" stop-color="#1C1D22"/>
</radialGradient>
</defs>
</svg>
