<svg width="32" height="32" viewBox="0 0 32 32" fill="none" xmlns="http://www.w3.org/2000/svg">
<path d="M12.5066 3C11.0748 3 9.91494 4.16478 9.91494 5.59986C9.9133 5.94061 9.98047 6.27972 10.1115 6.59426C10.2409 6.91044 10.4326 7.19549 10.6734 7.43794C10.9143 7.67876 11.1993 7.87044 11.5138 8.00149C11.8284 8.13255 12.1659 8.19972 12.5066 8.19972H15.0999V5.59986C15.0999 5.25911 15.0344 4.92163 14.9033 4.60546C14.7739 4.29092 14.5822 4.00423 14.3414 3.76341C14.1006 3.52095 13.8155 3.32928 13.501 3.19986C13.1848 3.06881 12.8474 3 12.5066 3ZM12.5066 9.93296H5.59331C4.1615 9.93296 3 11.0977 3 12.5345C3 13.9695 4.1615 15.1343 5.59331 15.1343H12.5082C13.9384 15.1343 15.0999 13.9695 15.0999 12.5345C15.0999 11.0977 13.9384 9.93296 12.5066 9.93296Z" fill="#44BEDF"/>
<path d="M28.9258 12.5345C28.9258 11.0977 27.7643 9.93296 26.3325 9.93296C24.9007 9.93296 23.7392 11.0977 23.7392 12.5345V15.1343H26.3325C26.6732 15.1327 27.0107 15.0655 27.3252 14.9345C27.6398 14.8034 27.9265 14.6134 28.1673 14.3709C28.4081 14.1301 28.5981 13.8434 28.7292 13.5272C28.8586 13.2127 28.9258 12.8752 28.9258 12.5345ZM22.0108 12.5345V5.59986C22.0108 5.25911 21.9437 4.92163 21.8142 4.60546C21.6832 4.29092 21.4932 4.00423 21.2523 3.76341C21.0115 3.52095 20.7248 3.32928 20.4103 3.19986C20.0957 3.06881 19.7583 3 19.4175 3C17.9857 3 16.8242 4.16478 16.8242 5.59986V12.5328C16.8242 13.9695 17.9857 15.1343 19.4175 15.1343C19.7583 15.1343 20.0957 15.0655 20.4103 14.9361C20.7248 14.805 21.0115 14.6134 21.2523 14.3709C21.4932 14.1301 21.6832 13.8434 21.8142 13.5289C21.9437 13.2127 22.0108 12.8752 22.0108 12.5345Z" fill="#2EB67D"/>
<path d="M19.4175 28.9999C19.7583 28.9999 20.0957 28.9327 20.4103 28.8016C20.7248 28.6706 21.0115 28.4789 21.2523 28.2381C21.4932 27.9956 21.6832 27.7089 21.8142 27.3944C21.9437 27.0782 22.0108 26.7408 22.0108 26.4C22.0108 26.0593 21.9437 25.7218 21.8142 25.4056C21.6832 25.0911 21.4932 24.8044 21.2523 24.5619C21.0115 24.3211 20.7248 24.1294 20.4103 23.9984C20.0957 23.8673 19.7583 23.8001 19.4175 23.8001H16.8242V26.4C16.8242 27.8351 17.9857 28.9999 19.4175 28.9999ZM19.4175 22.0669H26.3325C27.7643 22.0669 28.9258 20.9021 28.9258 19.467C28.9258 19.1247 28.8586 18.7872 28.7292 18.4726C28.5981 18.1565 28.4081 17.8698 28.1673 17.629C27.9265 17.3881 27.6398 17.1965 27.3252 17.0654C27.0107 16.9344 26.6732 16.8672 26.3325 16.8672H19.4175C17.9857 16.8672 16.8242 18.0303 16.8242 19.467C16.8242 19.8078 16.8914 20.1453 17.0208 20.4598C17.1519 20.776 17.3419 21.0627 17.5827 21.3035C17.8235 21.546 18.1102 21.7376 18.4248 21.867C18.7393 21.9981 19.0768 22.0653 19.4175 22.0669Z" fill="#ECB22E"/>
<path d="M3 19.467C3 19.8078 3.06717 20.1453 3.19659 20.4598C3.32601 20.776 3.51768 21.0627 3.7585 21.3035C3.99932 21.546 4.28437 21.7376 4.60054 21.867C4.91508 21.9981 5.25256 22.0653 5.59331 22.0669C5.93406 22.0653 6.27153 21.9981 6.58607 21.867C6.90061 21.7376 7.1873 21.546 7.42812 21.3035C7.6673 21.0627 7.85897 20.776 7.98839 20.4614C8.11945 20.1453 8.18661 19.8078 8.18661 19.467V16.8672H5.59331C4.1615 16.8672 3 18.0303 3 19.467ZM9.91494 19.467V26.4C9.91494 27.8351 11.0748 28.9999 12.5066 28.9999C12.8474 28.9999 13.1848 28.9327 13.501 28.8016C13.8155 28.6706 14.1006 28.4789 14.3414 28.2381C14.5822 27.9956 14.7739 27.7089 14.9033 27.3944C15.0344 27.0782 15.0999 26.7408 15.0999 26.4V19.467C15.0999 19.1247 15.0344 18.7872 14.9033 18.4726C14.7739 18.1565 14.5822 17.8698 14.3414 17.629C14.1006 17.3881 13.8155 17.1965 13.501 17.0654C13.1848 16.9344 12.8474 16.8672 12.5066 16.8672C11.0748 16.8672 9.91494 18.0303 9.91494 19.467Z" fill="#E01E5A"/>
</svg>
