<svg width="52" height="52" viewBox="0 0 52 52" fill="none" xmlns="http://www.w3.org/2000/svg">
<path d="M24.7258 1.60881C25.4511 0.79739 26.7212 0.797389 27.4465 1.60881L28.592 2.89104C29.1693 3.53723 30.1214 3.68829 30.8703 3.25236L32.3556 2.38713C33.2964 1.8391 34.5046 2.23162 34.9435 3.22795L35.6369 4.80022C35.9863 5.59334 36.8455 6.03146 37.6926 5.84807L39.3722 5.48381C40.4362 5.25333 41.4647 6.00035 41.5744 7.08342L41.7472 8.79338C41.8345 9.65574 42.5167 10.338 43.3791 10.4252L45.089 10.5981C46.1721 10.7078 46.9191 11.7362 46.6886 12.8002L46.3244 14.4799C46.141 15.327 46.5791 16.1861 47.3722 16.5356L48.9445 17.2289C49.9408 17.6679 50.3334 18.8761 49.7853 19.8168L48.9201 21.3022C48.4842 22.051 48.6352 23.0031 49.2814 23.5805L50.5636 24.726C51.3751 25.4513 51.3751 26.7214 50.5636 27.4467L49.2814 28.5922C48.6352 29.1695 48.4842 30.1217 48.9201 30.8705L49.7853 32.3559C50.3334 33.2966 49.9408 34.5048 48.9445 34.9438L47.3722 35.6371C46.5791 35.9866 46.141 36.8457 46.3244 37.6928L46.6886 39.3725C46.9191 40.4365 46.1721 41.4649 45.089 41.5746L43.3791 41.7475C42.5167 41.8347 41.8345 42.517 41.7472 43.3793L41.5744 45.0893C41.4647 46.1723 40.4362 46.9194 39.3722 46.6889L37.6926 46.3246C36.8455 46.1412 35.9863 46.5794 35.6369 47.3725L34.9435 48.9447C34.5046 49.9411 33.2964 50.3336 32.3556 49.7856L30.8703 48.9203C30.1214 48.4844 29.1693 48.6355 28.592 49.2817L27.4465 50.5639C26.7212 51.3753 25.4511 51.3753 24.7258 50.5639L23.5802 49.2817C23.0029 48.6355 22.0508 48.4844 21.3019 48.9203L19.8166 49.7856C18.8758 50.3336 17.6676 49.9411 17.2287 48.9447L16.5353 47.3725C16.1859 46.5794 15.3267 46.1412 14.4797 46.3246L12.8 46.6889C11.736 46.9194 10.7076 46.1723 10.5978 45.0893L10.425 43.3793C10.3377 42.517 9.65549 41.8347 8.79314 41.7475L7.08317 41.5746C6.00011 41.4649 5.25308 40.4365 5.48356 39.3725L5.84782 37.6928C6.03122 36.8457 5.5931 35.9866 4.79997 35.6371L3.22771 34.9438C2.23138 34.5048 1.83885 33.2966 2.38689 32.3559L3.25212 30.8705C3.68804 30.1217 3.53699 29.1695 2.89079 28.5922L1.60856 27.4467C0.797145 26.7214 0.797145 25.4513 1.60856 24.726L2.89079 23.5805C3.53699 23.0031 3.68805 22.051 3.25212 21.3022L2.38689 19.8168C1.83885 18.8761 2.23138 17.6679 3.22771 17.2289L4.79997 16.5356C5.5931 16.1861 6.03122 15.327 5.84782 14.4799L5.48356 12.8002C5.25308 11.7362 6.00011 10.7078 7.08317 10.5981L8.79314 10.4252C9.65549 10.338 10.3377 9.65574 10.425 8.79338L10.5978 7.08342C10.7076 6.00035 11.736 5.25333 12.8 5.48381L14.4797 5.84807C15.3267 6.03146 16.1859 5.59334 16.5353 4.80022L17.2287 3.22795C17.6676 2.23162 18.8758 1.8391 19.8166 2.38713L21.3019 3.25236C22.0508 3.68829 23.0029 3.53723 23.5802 2.89104L24.7258 1.60881ZM26.0861 5.08635C14.4881 5.08635 5.0861 14.4884 5.0861 26.0863C5.0861 37.6843 14.4881 47.0863 26.0861 47.0863C37.6841 47.0863 47.0861 37.6843 47.0861 26.0863C47.0861 14.4884 37.6841 5.08635 26.0861 5.08635Z" fill="url(#paint0_radial_8228_116959)"/>
<path d="M26.0859 7.08618C36.5793 7.08618 45.0859 15.5928 45.0859 26.0862C45.0858 36.5795 36.5793 45.0862 26.0859 45.0862C15.5926 45.0862 7.08607 36.5795 7.08594 26.0862C7.08594 15.5928 15.5925 7.08618 26.0859 7.08618ZM17.625 35.0559V35.4417H18.7549V38.6487H19.1895V35.4417H20.3193V35.0559H17.625ZM20.583 35.0559L21.8809 37.1682V38.6487H22.3164V37.1682L23.6143 35.0559H23.1162L22.1201 36.7327H22.0781L21.0811 35.0559H20.583ZM24.0781 35.0559V38.6487H24.5137V37.3362H25.2998C25.5791 37.3361 25.8085 37.2855 25.9873 37.1838C26.1661 37.081 26.2984 36.9427 26.3838 36.7698C26.4702 36.5968 26.5136 36.4041 26.5137 36.1926C26.5137 35.9811 26.4702 35.7892 26.3838 35.6174C26.2973 35.4455 26.1635 35.3088 25.9834 35.2083C25.8045 35.1066 25.5737 35.0559 25.292 35.0559H24.0781ZM27.1152 35.0559V38.6487H29.3115V38.2629H27.5508V37.0422H29.1709V36.6555H27.5508V35.4417H29.2832V35.0559H27.1152ZM31.2598 35.0559V38.6487H31.6943V35.0559H31.2598ZM32.4678 35.0559V38.6487H32.9033V35.0559H32.4678ZM25.2783 35.4417C25.4735 35.4417 25.63 35.4749 25.748 35.5403C25.8661 35.6046 25.9523 35.6935 26.0049 35.8069C26.0585 35.9202 26.085 36.049 26.085 36.1926C26.0849 36.3363 26.0586 36.4658 26.0049 36.5803C25.9522 36.6937 25.8669 36.7842 25.75 36.8508C25.6331 36.9173 25.4779 36.9504 25.2852 36.9504H24.5137V35.4417H25.2783ZM16.3486 24.9553C15.9466 24.9554 15.5865 25.0261 15.2686 25.1682C14.9505 25.3085 14.6989 25.5065 14.5137 25.761C14.3304 26.0154 14.2383 26.312 14.2383 26.6506C14.2384 27.0622 14.3753 27.393 14.6484 27.6418C14.9234 27.8886 15.2975 28.073 15.7705 28.1946L16.4248 28.3625C16.6306 28.4149 16.8104 28.4749 16.9639 28.5422C17.1191 28.6077 17.2401 28.6902 17.3262 28.7893C17.412 28.8865 17.4561 29.0101 17.458 29.1594C17.4561 29.324 17.4058 29.4686 17.3086 29.592C17.2114 29.7134 17.0771 29.809 16.9053 29.8782C16.735 29.9455 16.536 29.9797 16.3096 29.9797C16.0927 29.9797 15.8965 29.9465 15.7207 29.8811C15.5467 29.8156 15.4054 29.716 15.2969 29.5833C15.1885 29.4505 15.1263 29.2842 15.1113 29.0842H14.0869C14.1019 29.4656 14.2007 29.7894 14.3838 30.0549C14.569 30.3205 14.826 30.5229 15.1533 30.6614C15.4826 30.7998 15.8712 30.8694 16.3184 30.8694C16.7786 30.8694 17.1705 30.7977 17.4941 30.6555C17.8196 30.5115 18.0691 30.3122 18.2412 30.0579C18.4132 29.8016 18.499 29.5048 18.499 29.1682C18.499 28.9195 18.4519 28.702 18.3584 28.5168C18.2649 28.3318 18.1373 28.1741 17.9766 28.0432C17.8176 27.9123 17.6375 27.8031 17.4355 27.717C17.2354 27.631 17.0266 27.5625 16.8096 27.512L16.2705 27.3772C16.1528 27.3492 16.0358 27.3148 15.9199 27.2737C15.804 27.2326 15.6979 27.1821 15.6025 27.1223C15.5072 27.0606 15.4311 26.9855 15.375 26.8977C15.3208 26.8099 15.294 26.7058 15.2939 26.5862C15.2958 26.4422 15.3377 26.3137 15.4199 26.2014C15.5022 26.0892 15.6211 26.0003 15.7764 25.9348C15.9317 25.8693 16.1179 25.8362 16.335 25.8362C16.6435 25.8362 16.8942 25.9048 17.0869 26.0413C17.2815 26.1779 17.3918 26.3694 17.418 26.6145H18.4209C18.4153 26.2909 18.3242 26.0039 18.1484 25.7551C17.9726 25.5044 17.7296 25.3086 17.4209 25.1682C17.1141 25.0261 16.7564 24.9553 16.3486 24.9553ZM21.7646 24.9553C21.2614 24.9553 20.8106 25.0721 20.4121 25.3059C20.0155 25.5398 19.7008 25.878 19.4688 26.3196C19.2387 26.7593 19.123 27.2892 19.123 27.9084C19.1231 28.5256 19.2388 29.0549 19.4688 29.4963C19.7008 29.936 20.0155 30.2743 20.4121 30.51C20.8106 30.7438 21.2615 30.8606 21.7646 30.8606C22.2678 30.8606 22.7177 30.7437 23.1143 30.51C23.5128 30.2761 23.8275 29.9389 24.0576 29.4993C24.2895 29.0578 24.4062 28.5275 24.4062 27.9084C24.4062 27.2892 24.2895 26.7593 24.0576 26.3196C23.8275 25.878 23.5128 25.5398 23.1143 25.3059C22.7177 25.0722 22.2678 24.9553 21.7646 24.9553ZM27.7188 24.9553C27.2175 24.9554 26.7686 25.0722 26.3721 25.3059C25.9754 25.5398 25.6618 25.878 25.4316 26.3196C25.2016 26.7593 25.0859 27.2892 25.0859 27.9084C25.086 28.5255 25.2006 29.0549 25.4287 29.4963C25.657 29.9379 25.9696 30.2761 26.3662 30.51C26.7628 30.7438 27.2137 30.8605 27.7188 30.8606C28.061 30.8606 28.3728 30.8102 28.6533 30.7092C28.934 30.6063 29.1801 30.4639 29.3896 30.2825C29.599 30.0993 29.7684 29.8879 29.8975 29.6487C30.0284 29.4092 30.113 29.1523 30.1523 28.8792L29.1025 28.8733C29.0707 29.0416 29.0129 29.1916 28.9287 29.3225C28.8464 29.4533 28.7445 29.5638 28.623 29.6536C28.5033 29.7433 28.3673 29.8119 28.2158 29.8586C28.0662 29.9035 27.9054 29.926 27.7334 29.926C27.4228 29.926 27.1466 29.85 26.9053 29.6985C26.6659 29.5451 26.4763 29.319 26.3379 29.0198C26.2014 28.7187 26.1329 28.3479 26.1328 27.9084C26.1328 27.4764 26.2014 27.1101 26.3379 26.8108C26.4745 26.5096 26.6639 26.2806 26.9053 26.1252C27.1466 25.9682 27.424 25.8899 27.7363 25.8899C27.9121 25.8899 28.0761 25.9145 28.2275 25.9631C28.3807 26.0099 28.5172 26.0798 28.6367 26.1731C28.7564 26.2666 28.8571 26.3812 28.9375 26.5159C29.0178 26.6485 29.0726 26.8011 29.1025 26.9729H30.1523C30.1093 26.6534 30.018 26.369 29.8779 26.1204C29.7395 25.8697 29.5618 25.6577 29.3467 25.4856C29.1316 25.3117 28.8862 25.1799 28.6113 25.0901C28.3363 25.0003 28.0386 24.9553 27.7188 24.9553ZM34.6084 24.9553C34.2288 24.9554 33.8923 25.0293 33.5986 25.177C33.3068 25.3248 33.0776 25.5336 32.9111 25.803C32.7447 26.0723 32.6612 26.3895 32.6611 26.7542H33.6514C33.6514 26.5579 33.69 26.3884 33.7666 26.2463C33.8451 26.1043 33.9557 25.9949 34.0977 25.9182C34.2399 25.8396 34.4058 25.8001 34.5947 25.8C34.778 25.8 34.9419 25.8354 35.0859 25.9065C35.23 25.9776 35.3435 26.0792 35.4258 26.2102C35.5079 26.3392 35.5488 26.4947 35.5488 26.676C35.5488 26.8349 35.5177 26.985 35.4541 27.1252C35.3905 27.2655 35.2941 27.4102 35.167 27.5598C35.0398 27.7094 34.8811 27.8809 34.6904 28.0735L32.6943 30.0295V30.7825H36.6357V29.9124H34.1318V29.8733L35.1221 28.8655C35.4944 28.5063 35.7844 28.2001 35.9902 27.9475C36.1977 27.6951 36.3425 27.4646 36.4248 27.2571C36.5071 27.0495 36.5478 26.8374 36.5479 26.6223C36.5478 26.3006 36.4664 26.0146 36.3037 25.7639C36.1428 25.5132 35.9169 25.3152 35.625 25.1711C35.3331 25.0271 34.9939 24.9553 34.6084 24.9553ZM21.7646 25.8899C22.0771 25.8899 22.3533 25.968 22.5928 26.1233C22.8321 26.2767 23.0196 26.5038 23.1543 26.8049C23.2908 27.1043 23.3594 27.4726 23.3594 27.9084C23.3593 28.3441 23.2908 28.7128 23.1543 29.0139C23.0196 29.3131 22.8321 29.5403 22.5928 29.6956C22.3533 29.8489 22.0771 29.926 21.7646 29.926C21.4522 29.926 21.176 29.8489 20.9365 29.6956C20.6972 29.5403 20.5086 29.3131 20.3721 29.0139C20.2375 28.7128 20.17 28.3441 20.1699 27.9084C20.1699 27.4726 20.2374 27.1043 20.3721 26.8049C20.5086 26.5038 20.6972 26.2767 20.9365 26.1233C21.176 25.968 21.4522 25.8899 21.7646 25.8899ZM14.3984 22.2883V22.7825H37.123V22.2883H14.3984ZM24.8623 14.0862C24.3722 14.0862 23.9363 14.2061 23.5547 14.4456C23.1731 14.6851 22.8722 15.0255 22.6533 15.467C22.4345 15.9086 22.3252 16.4332 22.3252 17.0393C22.3253 17.6452 22.4346 18.1692 22.6533 18.6106C22.8722 19.052 23.1731 19.3926 23.5547 19.6321C23.9363 19.8715 24.3723 19.9914 24.8623 19.9915C25.1523 19.9915 25.4252 19.9497 25.6797 19.8655C25.9359 19.7813 26.1673 19.6582 26.373 19.4973C26.5787 19.3346 26.7513 19.1373 26.8896 18.9055C27.028 18.6736 27.1234 18.4101 27.1758 18.1165H26.4795C26.4383 18.3147 26.3665 18.4914 26.2637 18.6448C26.1627 18.7962 26.0384 18.9238 25.8926 19.0286C25.7486 19.1314 25.5889 19.2096 25.4131 19.262C25.2372 19.3143 25.0531 19.3401 24.8623 19.3401C24.5145 19.34 24.1994 19.2522 23.917 19.0764C23.6364 18.9006 23.4126 18.6414 23.2461 18.2991C23.0815 17.9568 22.9991 17.5368 22.999 17.0393C22.999 16.5417 23.0815 16.121 23.2461 15.7786C23.4126 15.4362 23.6364 15.1771 23.917 15.0012C24.1994 14.8254 24.5145 14.7376 24.8623 14.7375C25.0532 14.7375 25.2372 14.7633 25.4131 14.8157C25.5889 14.8681 25.7486 14.9473 25.8926 15.052C26.0385 15.1549 26.1627 15.2823 26.2637 15.4338C26.3664 15.5853 26.4384 15.7612 26.4795 15.9612H27.1758C27.1234 15.6656 27.0281 15.4022 26.8896 15.1721C26.7513 14.9403 26.5787 14.7441 26.373 14.5833C26.1673 14.4205 25.936 14.2964 25.6797 14.2122C25.4252 14.128 25.1523 14.0862 24.8623 14.0862ZM17.0498 14.1643L14.9385 19.9133H15.6689L16.2471 18.2854H18.5713L19.1494 19.9133H19.8789L17.7686 14.1643H17.0498ZM20.6162 14.1643V19.9133H21.3125V14.1643H20.6162ZM28.1426 14.1643V19.9133H28.8389V17.8137H30.0957C30.5429 17.8137 30.91 17.7323 31.1963 17.5696C31.4825 17.405 31.6935 17.1833 31.8301 16.9065C31.9684 16.6297 32.038 16.3221 32.0381 15.9836C32.0381 15.645 31.9685 15.3378 31.8301 15.0627C31.6916 14.7878 31.4785 14.5693 31.1904 14.4084C30.9042 14.2458 30.5356 14.1643 30.085 14.1643H28.1426ZM34.0312 14.1643L31.9209 19.9133H32.6504L33.2285 18.2854H35.5527L36.1309 19.9133H36.8613L34.75 14.1643H34.0312ZM17.4316 15.0745L18.3525 17.6672H16.4658L17.3867 15.0745H17.4316ZM34.4131 15.0745L35.334 17.6672H33.4473L34.3682 15.0745H34.4131ZM30.0625 14.7825C30.3748 14.7825 30.6255 14.8349 30.8145 14.9397C31.0033 15.0426 31.1404 15.185 31.2246 15.3665C31.3105 15.5478 31.3535 15.7538 31.3535 15.9836C31.3535 16.2136 31.3106 16.4205 31.2246 16.6038C31.1404 16.7852 31.0044 16.9298 30.8174 17.0364C30.6303 17.143 30.3819 17.1965 30.0732 17.1965H28.8389V14.7825H30.0625Z" fill="url(#paint1_radial_8228_116959)"/>
<defs>
<radialGradient id="paint0_radial_8228_116959" cx="0" cy="0" r="1" gradientUnits="userSpaceOnUse" gradientTransform="translate(26.1233 0.00170057) rotate(90) scale(49.2535 41.5286)">
<stop offset="0.461367" stop-color="#2E3038"/>
<stop offset="1" stop-color="#1C1D22"/>
</radialGradient>
<radialGradient id="paint1_radial_8228_116959" cx="0" cy="0" r="1" gradientUnits="userSpaceOnUse" gradientTransform="translate(26.1244 0.209051) rotate(90) scale(48.8398 41.182)">
<stop offset="0.461367" stop-color="#2E3038"/>
<stop offset="1" stop-color="#1C1D22"/>
</radialGradient>
</defs>
</svg>
