<svg width="52" height="52" viewBox="0 0 52 52" fill="none" xmlns="http://www.w3.org/2000/svg">
<path d="M24.7256 1.60901C25.4509 0.797187 26.7209 0.797129 27.4463 1.60901L28.5918 2.89026C29.1692 3.53656 30.1212 3.6877 30.8701 3.25159L32.3554 2.38636C33.2961 1.83837 34.5043 2.23103 34.9433 3.22718L35.6367 4.80042C35.9862 5.5935 36.8453 6.03077 37.6924 5.8473L39.372 5.48401C40.4361 5.25351 41.4646 6.00042 41.5742 7.08362L41.747 8.79359C41.8344 9.65572 42.5158 10.338 43.3779 10.4254L45.0888 10.5983C46.1718 10.7081 46.9179 11.7355 46.6875 12.7994L46.3242 14.4791C46.1407 15.3261 46.5782 16.1852 47.3711 16.5348L48.9443 17.2282C49.9406 17.6671 50.3332 18.8753 49.7851 19.816L48.9199 21.3014C48.4837 22.0503 48.6349 23.0033 49.2812 23.5807L50.5625 24.7252C51.3744 25.4506 51.3744 26.7215 50.5625 27.4469L49.2812 28.5914C48.6348 29.1689 48.4836 30.1218 48.9199 30.8707L49.7851 32.3561C50.3331 33.2968 49.9406 34.505 48.9443 34.944L47.3711 35.6364C46.578 35.9859 46.1407 36.846 46.3242 37.693L46.6875 39.3727C46.9179 40.4366 46.1718 41.4641 45.0888 41.5739L43.3779 41.7467C42.5157 41.8341 41.8343 42.5163 41.747 43.3785L41.5742 45.0885C41.4646 46.1717 40.4361 46.9186 39.372 46.6881L37.6924 46.3239C36.8453 46.1405 35.9861 46.5786 35.6367 47.3717L34.9433 48.945C34.5042 49.941 33.2961 50.3337 32.3554 49.7858L30.8701 48.9205C30.1213 48.4844 29.1692 48.6348 28.5918 49.2809L27.4463 50.5631C26.7209 51.3749 25.4509 51.3748 24.7256 50.5631L23.58 49.2809C23.0026 48.6347 22.0496 48.4843 21.3007 48.9205L19.8164 49.7858C18.8758 50.3337 17.6676 49.9409 17.2285 48.945L16.5351 47.3717C16.1857 46.5786 15.3265 46.1406 14.4795 46.3239L12.7998 46.6881C11.7357 46.9186 10.7072 46.1717 10.5976 45.0885L10.4248 43.3785C10.3375 42.5162 9.65529 41.834 8.79294 41.7467L7.08298 41.5739C5.99997 41.4642 5.25306 40.4366 5.48337 39.3727L5.84762 37.693C6.03113 36.8459 5.59296 35.9858 4.79977 35.6364L3.22751 34.944C2.23119 34.505 1.83869 33.2968 2.38669 32.3561L3.25192 30.8707C3.68815 30.1218 3.53694 29.1689 2.89059 28.5914L1.60837 27.4469C0.796527 26.7216 0.796593 25.4506 1.60837 24.7252L2.89059 23.5807C3.5369 23.0033 3.68804 22.0503 3.25192 21.3014L2.38669 19.816C1.83866 18.8753 2.23118 17.6671 3.22751 17.2282L4.79977 16.5348C5.59296 16.1853 6.03113 15.3262 5.84762 14.4791L5.48337 12.7994C5.25293 11.7355 5.99992 10.708 7.08298 10.5983L8.79294 10.4254C9.65524 10.3382 10.3375 9.65586 10.4248 8.79359L10.5976 7.08362C10.7072 6.00042 11.7357 5.25351 12.7998 5.48401L14.4795 5.8473C15.3265 6.03068 16.1857 5.59349 16.5351 4.80042L17.2285 3.22718C17.6676 2.23108 18.8757 1.83838 19.8164 2.38636L21.3007 3.25159C22.0497 3.68789 23.0026 3.53664 23.58 2.89026L24.7256 1.60901ZM26.0859 5.08655C14.4879 5.08655 5.08591 14.4886 5.08591 26.0866C5.08609 37.6844 14.488 47.0866 26.0859 47.0866C37.6837 47.0865 47.0857 37.6843 47.0859 26.0866C47.0859 14.4886 37.6838 5.0866 26.0859 5.08655Z" fill="url(#paint0_radial_8228_116947)"/>
<path d="M26.085 7.08618C36.5784 7.08618 45.085 15.5928 45.085 26.0862C45.0848 36.5795 36.5783 45.0862 26.085 45.0862C15.5916 45.0862 7.08509 36.5795 7.08496 26.0862C7.08496 15.5928 15.5916 7.08618 26.085 7.08618ZM18.7275 35.0559V35.4417H19.8574V38.6487H20.293V35.4417H21.4229V35.0559H18.7275ZM21.6865 35.0559L22.9844 37.1682V38.6487H23.4199V37.1682L24.7178 35.0559H24.2197L23.2236 36.7327H23.1807L22.1846 35.0559H21.6865ZM25.1816 35.0559V38.6487H25.6172V37.3362H26.4023C26.6818 37.3362 26.9119 37.2855 27.0908 37.1838C27.2695 37.081 27.402 36.9427 27.4873 36.7698C27.5737 36.5968 27.6162 36.4041 27.6162 36.1926C27.6162 35.9812 27.5737 35.7892 27.4873 35.6174C27.4008 35.4455 27.267 35.3088 27.0869 35.2083C26.908 35.1065 26.6773 35.0559 26.3955 35.0559H25.1816ZM28.2188 35.0559V38.6487H30.415V38.2629H28.6533V37.0422H30.2744V36.6555H28.6533V35.4417H30.3867V35.0559H28.2188ZM32.3633 35.0559V38.6487H32.7979V35.0559H32.3633ZM26.3818 35.4417C26.577 35.4417 26.7335 35.4748 26.8516 35.5403C26.9696 35.6046 27.0548 35.6935 27.1074 35.8069C27.1611 35.9203 27.1885 36.0489 27.1885 36.1926C27.1884 36.3364 27.1612 36.4658 27.1074 36.5803C27.0548 36.6936 26.9704 36.7842 26.8535 36.8508C26.7366 36.9174 26.5815 36.9504 26.3887 36.9504H25.6172V35.4417H26.3818ZM16.3477 24.9553C15.9456 24.9554 15.5855 25.0261 15.2676 25.1682C14.9495 25.3085 14.6979 25.5065 14.5127 25.761C14.3294 26.0154 14.2373 26.312 14.2373 26.6506C14.2374 27.0622 14.3743 27.393 14.6475 27.6418C14.9224 27.8886 15.2965 28.073 15.7695 28.1946L16.4238 28.3625C16.6296 28.4149 16.8095 28.4749 16.9629 28.5422C17.1181 28.6077 17.2391 28.6902 17.3252 28.7893C17.411 28.8865 17.4551 29.0101 17.457 29.1594C17.4551 29.324 17.4049 29.4686 17.3076 29.592C17.2104 29.7134 17.0761 29.809 16.9043 29.8782C16.734 29.9455 16.535 29.9797 16.3086 29.9797C16.0918 29.9797 15.8955 29.9465 15.7197 29.8811C15.5458 29.8156 15.4044 29.716 15.2959 29.5833C15.1875 29.4505 15.1254 29.2842 15.1104 29.0842H14.0859C14.101 29.4656 14.1997 29.7894 14.3828 30.0549C14.568 30.3205 14.825 30.5229 15.1523 30.6614C15.4817 30.7998 15.8702 30.8694 16.3174 30.8694C16.7776 30.8694 17.1695 30.7977 17.4932 30.6555C17.8186 30.5115 18.0681 30.3122 18.2402 30.0579C18.4122 29.8016 18.498 29.5048 18.498 29.1682C18.498 28.9195 18.4509 28.702 18.3574 28.5168C18.2639 28.3318 18.1364 28.1741 17.9756 28.0432C17.8166 27.9123 17.6365 27.8031 17.4346 27.717C17.2344 27.631 17.0256 27.5625 16.8086 27.512L16.2695 27.3772C16.1518 27.3492 16.0348 27.3148 15.9189 27.2737C15.803 27.2326 15.6969 27.1821 15.6016 27.1223C15.5062 27.0606 15.4301 26.9855 15.374 26.8977C15.3198 26.8099 15.293 26.7058 15.293 26.5862C15.2948 26.4422 15.3367 26.3137 15.4189 26.2014C15.5013 26.0892 15.6202 26.0003 15.7754 25.9348C15.9307 25.8693 16.1169 25.8362 16.334 25.8362C16.6426 25.8362 16.8932 25.9048 17.0859 26.0413C17.2805 26.1779 17.3908 26.3694 17.417 26.6145H18.4199C18.4143 26.2909 18.3232 26.0039 18.1475 25.7551C17.9716 25.5044 17.7286 25.3086 17.4199 25.1682C17.1131 25.0261 16.7554 24.9553 16.3477 24.9553ZM21.7637 24.9553C21.2605 24.9553 20.8096 25.0721 20.4111 25.3059C20.0145 25.5398 19.6998 25.878 19.4678 26.3196C19.2377 26.7593 19.1221 27.2892 19.1221 27.9084C19.1222 28.5256 19.2378 29.0549 19.4678 29.4963C19.6998 29.936 20.0145 30.2743 20.4111 30.51C20.8096 30.7438 21.2605 30.8606 21.7637 30.8606C22.2668 30.8606 22.7167 30.7437 23.1133 30.51C23.5118 30.2761 23.8265 29.9389 24.0566 29.4993C24.2886 29.0578 24.4052 28.5275 24.4053 27.9084C24.4053 27.2892 24.2886 26.7593 24.0566 26.3196C23.8265 25.878 23.5118 25.5398 23.1133 25.3059C22.7167 25.0722 22.2668 24.9553 21.7637 24.9553ZM27.7178 24.9553C27.2165 24.9554 26.7676 25.0722 26.3711 25.3059C25.9744 25.5398 25.6608 25.878 25.4307 26.3196C25.2006 26.7593 25.085 27.2892 25.085 27.9084C25.085 28.5255 25.1996 29.0549 25.4277 29.4963C25.656 29.9379 25.9686 30.2761 26.3652 30.51C26.7618 30.7438 27.2127 30.8605 27.7178 30.8606C28.06 30.8606 28.3718 30.8102 28.6523 30.7092C28.933 30.6063 29.1791 30.4639 29.3887 30.2825C29.598 30.0993 29.7675 29.8879 29.8965 29.6487C30.0274 29.4092 30.1121 29.1523 30.1514 28.8792L29.1016 28.8733C29.0697 29.0416 29.0119 29.1916 28.9277 29.3225C28.8455 29.4533 28.7435 29.5638 28.6221 29.6536C28.5023 29.7433 28.3664 29.8119 28.2148 29.8586C28.0653 29.9035 27.9044 29.926 27.7324 29.926C27.4218 29.926 27.1457 29.85 26.9043 29.6985C26.6649 29.5451 26.4754 29.319 26.3369 29.0198C26.2004 28.7187 26.1319 28.3479 26.1318 27.9084C26.1318 27.4764 26.2005 27.1101 26.3369 26.8108C26.4735 26.5096 26.663 26.2806 26.9043 26.1252C27.1456 25.9682 27.423 25.8899 27.7354 25.8899C27.9111 25.8899 28.0751 25.9145 28.2266 25.9631C28.3797 26.0099 28.5162 26.0798 28.6357 26.1731C28.7554 26.2666 28.8561 26.3812 28.9365 26.5159C29.0168 26.6485 29.0716 26.8011 29.1016 26.9729H30.1514C30.1083 26.6534 30.017 26.369 29.877 26.1204C29.7385 25.8697 29.5608 25.6577 29.3457 25.4856C29.1306 25.3117 28.8853 25.1799 28.6104 25.0901C28.3354 25.0003 28.0376 24.9553 27.7178 24.9553ZM34.6074 24.9553C34.2278 24.9554 33.8913 25.0293 33.5977 25.177C33.3058 25.3248 33.0767 25.5336 32.9102 25.803C32.7437 26.0723 32.6602 26.3895 32.6602 26.7542H33.6504C33.6504 26.5579 33.689 26.3884 33.7656 26.2463C33.8441 26.1043 33.9547 25.9949 34.0967 25.9182C34.2389 25.8396 34.4048 25.8001 34.5938 25.8C34.7771 25.8 34.9409 25.8354 35.085 25.9065C35.229 25.9776 35.3425 26.0792 35.4248 26.2102C35.5069 26.3392 35.5479 26.4947 35.5479 26.676C35.5478 26.8349 35.5167 26.985 35.4531 27.1252C35.3895 27.2655 35.2932 27.4102 35.166 27.5598C35.0388 27.7094 34.8801 27.8809 34.6895 28.0735L32.6934 30.0295V30.7825H36.6348V29.9124H34.1309V29.8733L35.1211 28.8655C35.4934 28.5063 35.7834 28.2001 35.9893 27.9475C36.1968 27.6951 36.3415 27.4646 36.4238 27.2571C36.5061 27.0495 36.5468 26.8374 36.5469 26.6223C36.5468 26.3006 36.4654 26.0146 36.3027 25.7639C36.1418 25.5132 35.9159 25.3152 35.624 25.1711C35.3321 25.0271 34.9929 24.9553 34.6074 24.9553ZM21.7637 25.8899C22.0762 25.8899 22.3523 25.968 22.5918 26.1233C22.8311 26.2767 23.0187 26.5038 23.1533 26.8049C23.2898 27.1043 23.3584 27.4726 23.3584 27.9084C23.3583 28.3441 23.2898 28.7128 23.1533 29.0139C23.0187 29.3131 22.8311 29.5403 22.5918 29.6956C22.3523 29.8489 22.0761 29.926 21.7637 29.926C21.4512 29.926 21.175 29.8489 20.9355 29.6956C20.6962 29.5403 20.5076 29.3131 20.3711 29.0139C20.2365 28.7128 20.169 28.3441 20.1689 27.9084C20.1689 27.4726 20.2365 27.1043 20.3711 26.8049C20.5076 26.5038 20.6962 26.2767 20.9355 26.1233C21.1751 25.968 21.4512 25.8899 21.7637 25.8899ZM14.3975 22.2883V22.7825H37.1221V22.2883H14.3975ZM24.8613 14.0862C24.3712 14.0862 23.9353 14.2061 23.5537 14.4456C23.1721 14.6851 22.8712 15.0255 22.6523 15.467C22.4335 15.9086 22.3242 16.4332 22.3242 17.0393C22.3243 17.6452 22.4336 18.1692 22.6523 18.6106C22.8712 19.052 23.1721 19.3926 23.5537 19.6321C23.9353 19.8715 24.3713 19.9914 24.8613 19.9915C25.1513 19.9915 25.4242 19.9497 25.6787 19.8655C25.935 19.7813 26.1663 19.6582 26.3721 19.4973C26.5777 19.3346 26.7503 19.1373 26.8887 18.9055C27.0271 18.6736 27.1224 18.4101 27.1748 18.1165H26.4785C26.4373 18.3147 26.3656 18.4914 26.2627 18.6448C26.1617 18.7962 26.0375 18.9238 25.8916 19.0286C25.7476 19.1314 25.5879 19.2096 25.4121 19.262C25.2362 19.3143 25.0522 19.3401 24.8613 19.3401C24.5135 19.34 24.1984 19.2522 23.916 19.0764C23.6354 18.9006 23.4116 18.6414 23.2451 18.2991C23.0805 17.9568 22.9981 17.5368 22.998 17.0393C22.998 16.5417 23.0805 16.121 23.2451 15.7786C23.4116 15.4362 23.6354 15.1771 23.916 15.0012C24.1984 14.8254 24.5135 14.7376 24.8613 14.7375C25.0522 14.7375 25.2362 14.7633 25.4121 14.8157C25.5879 14.8681 25.7476 14.9473 25.8916 15.052C26.0375 15.1549 26.1617 15.2823 26.2627 15.4338C26.3654 15.5853 26.4374 15.7612 26.4785 15.9612H27.1748C27.1224 15.6656 27.0271 15.4022 26.8887 15.1721C26.7503 14.9403 26.5777 14.7441 26.3721 14.5833C26.1663 14.4205 25.935 14.2964 25.6787 14.2122C25.4242 14.128 25.1514 14.0862 24.8613 14.0862ZM17.0488 14.1643L14.9375 19.9133H15.668L16.2461 18.2854H18.5703L19.1484 19.9133H19.8779L17.7676 14.1643H17.0488ZM20.6152 14.1643V19.9133H21.3115V14.1643H20.6152ZM28.1416 14.1643V19.9133H28.8379V17.8137H30.0947C30.5419 17.8137 30.909 17.7323 31.1953 17.5696C31.4815 17.405 31.6925 17.1833 31.8291 16.9065C31.9675 16.6297 32.0371 16.3221 32.0371 15.9836C32.0371 15.645 31.9675 15.3378 31.8291 15.0627C31.6906 14.7878 31.4775 14.5693 31.1895 14.4084C30.9033 14.2458 30.5347 14.1643 30.084 14.1643H28.1416ZM34.0303 14.1643L31.9199 19.9133H32.6494L33.2275 18.2854H35.5518L36.1299 19.9133H36.8604L34.749 14.1643H34.0303ZM17.4307 15.0745L18.3516 17.6672H16.4648L17.3857 15.0745H17.4307ZM34.4121 15.0745L35.333 17.6672H33.4463L34.3672 15.0745H34.4121ZM30.0615 14.7825C30.3739 14.7825 30.6245 14.8349 30.8135 14.9397C31.0023 15.0426 31.1395 15.185 31.2236 15.3665C31.3095 15.5478 31.3525 15.7538 31.3525 15.9836C31.3525 16.2136 31.3096 16.4205 31.2236 16.6038C31.1394 16.7852 31.0035 16.9298 30.8164 17.0364C30.6293 17.143 30.381 17.1965 30.0723 17.1965H28.8379V14.7825H30.0615Z" fill="url(#paint1_radial_8228_116947)"/>
<defs>
<radialGradient id="paint0_radial_8228_116947" cx="0" cy="0" r="1" gradientUnits="userSpaceOnUse" gradientTransform="translate(26.1226 0.0015851) rotate(90) scale(49.2531 41.5283)">
<stop offset="0.461367" stop-color="#2E3038"/>
<stop offset="1" stop-color="#1C1D22"/>
</radialGradient>
<radialGradient id="paint1_radial_8228_116947" cx="0" cy="0" r="1" gradientUnits="userSpaceOnUse" gradientTransform="translate(26.1234 0.209051) rotate(90) scale(48.8398 41.182)">
<stop offset="0.461367" stop-color="#2E3038"/>
<stop offset="1" stop-color="#1C1D22"/>
</radialGradient>
</defs>
</svg>
