<svg width="32" height="32" viewBox="0 0 32 32" fill="none" xmlns="http://www.w3.org/2000/svg">
<path d="M14.5293 9C17.0493 9 18.3109 9.00016 19.2725 9.49121C20.1188 9.92338 20.807 10.6117 21.2393 11.458C21.7303 12.4195 21.7305 13.6813 21.7305 16.1982V20.8027C21.7305 21.7643 21.7302 22.2467 21.542 22.6143C21.3767 22.9381 21.1139 23.2018 20.79 23.3672C20.4225 23.5554 19.94 23.5557 18.9785 23.5557H10.2012C7.68121 23.5557 6.41953 23.5555 5.45801 23.0645C4.61173 22.6323 3.92345 21.9439 3.49121 21.0977C3.00017 20.1362 3 18.8743 3 16.3574L3.00293 11.752C3.00293 10.7908 3.00331 10.3089 3.19141 9.94141C3.35675 9.61744 3.62037 9.35382 3.94434 9.18848C4.31181 9.00047 4.79384 9 5.75488 9H14.5293ZM27.6846 9.18652C27.9205 9.1285 28.1697 9.15355 28.3896 9.25684C28.6095 9.36014 28.7875 9.53632 28.8936 9.75488C28.9992 9.97549 28.999 10.3581 28.999 11.125V21.416C28.999 22.1976 28.9992 22.5655 28.8936 22.7861C28.7875 23.0047 28.6095 23.1809 28.3896 23.2842C28.1697 23.3875 27.9205 23.4125 27.6846 23.3545C27.4464 23.2986 27.1524 23.0515 26.5645 22.5605L24.1592 20.5576C23.8916 20.3514 23.6416 20.1228 23.4121 19.875C23.0968 19.5016 22.8859 19.0516 22.8008 18.5703C22.759 18.2369 22.7454 17.9002 22.7598 17.5645V14.9707C22.7454 14.635 22.759 14.2983 22.8008 13.9648C22.8859 13.4834 23.0966 13.0327 23.4121 12.6592C23.6419 12.4135 23.892 12.1877 24.1592 11.9834L26.5645 9.98047C27.1524 9.48074 27.4464 9.24533 27.6846 9.18652Z" fill="white"/>
<path d="M14.5293 9C17.0493 9 18.3109 9.00016 19.2725 9.49121C20.1188 9.92338 20.807 10.6117 21.2393 11.458C21.7303 12.4195 21.7305 13.6813 21.7305 16.1982V20.8027C21.7305 21.7643 21.7302 22.2467 21.542 22.6143C21.3767 22.9381 21.1139 23.2018 20.79 23.3672C20.4225 23.5554 19.94 23.5557 18.9785 23.5557H10.2012C7.68121 23.5557 6.41953 23.5555 5.45801 23.0645C4.61173 22.6323 3.92345 21.9439 3.49121 21.0977C3.00017 20.1362 3 18.8743 3 16.3574L3.00293 11.752C3.00293 10.7908 3.00331 10.3089 3.19141 9.94141C3.35675 9.61744 3.62037 9.35382 3.94434 9.18848C4.31181 9.00047 4.79384 9 5.75488 9H14.5293ZM27.6846 9.18652C27.9205 9.1285 28.1697 9.15355 28.3896 9.25684C28.6095 9.36014 28.7875 9.53632 28.8936 9.75488C28.9992 9.97549 28.999 10.3581 28.999 11.125V21.416C28.999 22.1976 28.9992 22.5655 28.8936 22.7861C28.7875 23.0047 28.6095 23.1809 28.3896 23.2842C28.1697 23.3875 27.9205 23.4125 27.6846 23.3545C27.4464 23.2986 27.1524 23.0515 26.5645 22.5605L24.1592 20.5576C23.8916 20.3514 23.6416 20.1228 23.4121 19.875C23.0968 19.5016 22.8859 19.0516 22.8008 18.5703C22.759 18.2369 22.7454 17.9002 22.7598 17.5645V14.9707C22.7454 14.635 22.759 14.2983 22.8008 13.9648C22.8859 13.4834 23.0966 13.0327 23.4121 12.6592C23.6419 12.4135 23.892 12.1877 24.1592 11.9834L26.5645 9.98047C27.1524 9.48074 27.4464 9.24533 27.6846 9.18652Z" fill="url(#paint0_linear_4424_454956)"/>
<defs>
<linearGradient id="paint0_linear_4424_454956" x1="15.9995" y1="9" x2="15.9995" y2="23.5557" gradientUnits="userSpaceOnUse">
<stop stop-color="#57A3FF"/>
<stop offset="1" stop-color="#3C82FB"/>
</linearGradient>
</defs>
</svg>
